<?xml version="1.0" encoding="UTF-8" standalone="no"?>
<svg
   xmlns:dc="http://purl.org/dc/elements/1.1/"
   xmlns:cc="http://creativecommons.org/ns#"
   xmlns:rdf="http://www.w3.org/1999/02/22-rdf-syntax-ns#"
   xmlns:svg="http://www.w3.org/2000/svg"
   xmlns="http://www.w3.org/2000/svg"
   xmlns:sodipodi="http://sodipodi.sourceforge.net/DTD/sodipodi-0.dtd"
   xmlns:inkscape="http://www.inkscape.org/namespaces/inkscape"
   version="1.1"
   id="svg2"
   xml:space="preserve"
   width="1496"
   height="1496"
   viewBox="0 0 1496 1496"
   sodipodi:docname="85418.eps"><metadata
     id="metadata8"><rdf:RDF><cc:Work
         rdf:about=""><dc:format>image/svg+xml</dc:format><dc:type
           rdf:resource="http://purl.org/dc/dcmitype/StillImage" /></cc:Work></rdf:RDF></metadata><defs
     id="defs6"><pattern
       patternTransform="matrix(10,0,0,10,-7,6741)"
       patternUnits="userSpaceOnUse"
       x="0"
       y="0"
       width="1122"
       height="1122"
       id="pattern180"><g
         transform="scale(0.1)"
         id="g178"><path
           d="M 11637.8,-103.004 9804.07,-1167.54 10230.6,970.102 11637.8,-103.004 Z M 9680.25,-1553.33 11949.9,-235.727 c 39.2,22.766 64.5,63.622 67.3,108.875 2.9,45.2622 -17.1,88.9536 -53.1,116.4497 L 10222.4,1317.8 c -37.3,28.4 -86.5,35.59 -130.3,19.05 -43.8,-16.55 -76,-54.5 -85.2,-100.42 l -527.91,-2645.81 c -10.44,-52.33 10.75,-105.92 54.15,-136.97 23.52,-16.82 51.21,-25.33 78.98,-25.33 23.47,0 46.99,6.08 68.13,18.35"
           style="fill:#fdbfbc;fill-opacity:1;fill-rule:nonzero;stroke:none"
           id="path16" /><path
           d="M 6220.24,1074.6 7366.65,-23.9727 7280.07,-114.316 6133.66,984.262 6220.24,1074.6 Z M 7484.59,-21.4609 6217.73,1192.55 6015.72,981.746 7282.58,-232.262 7484.59,-21.4609"
           style="fill:#bdebe6;fill-opacity:1;fill-rule:nonzero;stroke:none"
           id="path18" /><path
           d="m 1911.58,1315.06 c 4.74,35.24 23.84,68.41 55.51,90.05 210.35,143.74 464.08,196.96 714.46,149.85 250.38,-47.11 467.43,-188.89 611.16,-399.25 296.73,-434.245 184.83,-1028.913 -249.4,-1325.628 -59.28,-40.508 -140.17,-25.289 -180.68,33.992 -40.51,59.2815 -25.27,140.17991 34,180.676 153.01,104.555 256.15,262.441 290.41,444.566 34.24,182.102 -4.44,366.7 -109,519.714 -104.56,153.01 -262.43,256.15 -444.56,290.41 -182.13,34.27 -366.7,-4.44 -519.71,-109 -59.28,-40.51 -140.17,-25.29 -180.68,34 -18.86,27.6 -25.64,59.9 -21.51,90.62"
           style="fill:#937ab9;fill-opacity:1;fill-rule:nonzero;stroke:none"
           id="path20" /><path
           d="M 417.801,-103.004 -1415.93,-1167.54 -989.379,970.102 417.801,-103.004 Z M -1539.75,-1553.33 729.895,-235.727 c 39.222,22.766 64.484,63.622 67.324,108.875 2.844,45.2622 -17.106,88.9536 -53.16,116.4497 L -997.637,1317.8 c -37.243,28.4 -86.483,35.59 -130.273,19.05 -43.81,-16.55 -75.99,-54.5 -85.15,-100.42 l -527.95,-2645.81 c -10.44,-52.33 10.75,-105.92 54.15,-136.97 23.52,-16.82 51.21,-25.33 78.98,-25.33 23.47,0 47,6.08 68.13,18.35"
           style="fill:#fdbfbc;fill-opacity:1;fill-rule:nonzero;stroke:none"
           id="path22" /><path
           d="m 11668.2,3544.02 c -175.6,0 -342.7,75.78 -458.3,207.9 -77.7,88.73 -189.8,139.63 -307.7,139.63 -118,0 -230.1,-50.9 -307.8,-139.63 -115.6,-132.12 -282.7,-207.9 -458.2,-207.9 -175.62,0 -342.64,75.78 -458.28,207.9 -77.66,88.73 -189.83,139.63 -307.75,139.63 -117.92,0 -230.09,-50.9 -307.75,-139.63 -36.37,-41.56 -99.55,-45.77 -141.11,-9.39 -41.55,36.37 -45.76,99.55 -9.38,141.11 115.63,132.12 282.66,207.9 458.24,207.91 175.58,0 342.61,-75.78 458.25,-207.91 77.66,-88.73 189.78,-139.62 307.78,-139.62 117.9,0 230.1,50.89 307.7,139.62 115.7,132.12 282.7,207.91 458.3,207.91 175.5,0 342.6,-75.79 458.2,-207.91 77.7,-88.73 189.8,-139.62 307.8,-139.62 117.9,0 230,50.89 307.7,139.62 115.6,132.12 282.7,207.91 458.2,207.91 175.6,0 342.6,-75.79 458.3,-207.91 36.4,-41.56 32.2,-104.74 -9.4,-141.11 -41.6,-36.37 -104.7,-32.18 -141.1,9.39 -77.7,88.73 -189.8,139.63 -307.8,139.63 -117.9,0 -230,-50.9 -307.7,-139.63 -115.6,-132.12 -282.7,-207.9 -458.2,-207.9"
           style="fill:#ffbe4d;fill-opacity:1;fill-rule:nonzero;stroke:none"
           id="path24" /><path
           d="m 11668.2,2996.49 c -175.6,0 -342.7,75.78 -458.3,207.9 -77.7,88.73 -189.8,139.63 -307.7,139.63 -118,0 -230.1,-50.9 -307.8,-139.63 -115.6,-132.12 -282.7,-207.9 -458.2,-207.9 -175.62,0 -342.64,75.78 -458.28,207.9 -77.66,88.73 -189.83,139.63 -307.75,139.63 -117.92,0 -230.09,-50.9 -307.75,-139.63 -36.37,-41.56 -99.55,-45.77 -141.11,-9.39 -41.55,36.37 -45.76,99.55 -9.38,141.11 115.63,132.12 282.66,207.9 458.24,207.91 175.58,0 342.61,-75.78 458.25,-207.91 77.66,-88.73 189.78,-139.62 307.78,-139.62 117.9,0 230.1,50.89 307.7,139.62 115.7,132.12 282.7,207.91 458.3,207.91 175.5,0 342.6,-75.79 458.2,-207.91 77.7,-88.73 189.8,-139.62 307.8,-139.62 117.9,0 230,50.89 307.7,139.62 115.6,132.12 282.7,207.91 458.2,207.91 175.6,0 342.6,-75.79 458.3,-207.91 36.4,-41.56 32.2,-104.74 -9.4,-141.11 -41.6,-36.36 -104.7,-32.18 -141.1,9.39 -77.7,88.73 -189.8,139.63 -307.8,139.63 -117.9,0 -230,-50.9 -307.7,-139.63 -115.6,-132.12 -282.7,-207.9 -458.2,-207.9"
           style="fill:#ffbe4d;fill-opacity:1;fill-rule:nonzero;stroke:none"
           id="path26" /><path
           d="m 11668.2,2448.96 c -175.6,0 -342.7,75.78 -458.3,207.9 -77.7,88.73 -189.8,139.63 -307.7,139.63 -118,0 -230.1,-50.9 -307.8,-139.63 -115.6,-132.12 -282.7,-207.9 -458.2,-207.9 -175.62,0 -342.64,75.78 -458.28,207.9 -77.66,88.73 -189.83,139.63 -307.75,139.63 -117.92,0 -230.09,-50.9 -307.75,-139.63 -36.37,-41.56 -99.55,-45.77 -141.11,-9.39 -41.55,36.38 -45.76,99.55 -9.38,141.11 115.63,132.13 282.66,207.9 458.24,207.91 175.58,0 342.61,-75.78 458.25,-207.91 77.66,-88.73 189.78,-139.62 307.78,-139.62 117.9,0 230.1,50.89 307.7,139.62 115.7,132.13 282.7,207.91 458.3,207.91 175.5,0 342.6,-75.78 458.2,-207.91 77.7,-88.73 189.8,-139.62 307.8,-139.62 117.9,0 230,50.89 307.7,139.62 115.6,132.13 282.7,207.91 458.2,207.91 175.6,0 342.6,-75.78 458.3,-207.91 36.4,-41.56 32.2,-104.73 -9.4,-141.11 -41.6,-36.36 -104.7,-32.17 -141.1,9.39 -77.7,88.73 -189.8,139.63 -307.8,139.63 -117.9,0 -230,-50.9 -307.7,-139.63 -115.6,-132.12 -282.7,-207.9 -458.2,-207.9"
           style="fill:#ffbe4d;fill-opacity:1;fill-rule:nonzero;stroke:none"
           id="path28" /><path
           d="m 2332.82,6614.51 -1077.67,-412.77 765.76,1265.74 311.91,-852.97 z"
           style="fill:#bdebe6;fill-opacity:1;fill-rule:nonzero;stroke:none"
           id="path30" /><path
           d="M 11637.8,11117 9804.07,10052.5 10230.6,12190.1 11637.8,11117 Z M 9680.25,9666.67 11949.9,10984.3 c 39.2,22.7 64.5,63.6 67.3,108.8 2.9,45.3 -17.1,89 -53.1,116.5 l -1741.7,1328.2 c -37.3,28.4 -86.5,35.6 -130.3,19.1 -43.8,-16.6 -76,-54.6 -85.2,-100.5 L 9478.99,9810.62 c -10.44,-52.33 10.75,-105.92 54.15,-136.97 23.52,-16.82 51.21,-25.33 78.98,-25.33 23.47,0 46.99,6.08 68.13,18.35"
           style="fill:#fdbfbc;fill-opacity:1;fill-rule:nonzero;stroke:none"
           id="path32" /><path
           d="M 11637.8,-103.004 9804.07,-1167.54 10230.6,970.102 11637.8,-103.004 Z M 9680.25,-1553.33 11949.9,-235.727 c 39.2,22.766 64.5,63.622 67.3,108.875 2.9,45.2622 -17.1,88.9536 -53.1,116.4497 L 10222.4,1317.8 c -37.3,28.4 -86.5,35.59 -130.3,19.05 -43.8,-16.55 -76,-54.5 -85.2,-100.42 l -527.91,-2645.81 c -10.44,-52.33 10.75,-105.92 54.15,-136.97 23.52,-16.82 51.21,-25.33 78.98,-25.33 23.47,0 46.99,6.08 68.13,18.35"
           style="fill:#fdbfbc;fill-opacity:1;fill-rule:nonzero;stroke:none"
           id="path34" /><path
           d="m 11387.9,8367.73 430.5,430.43 c 16.8,16.87 26.1,39.31 26.1,63.18 0,23.87 -9.3,46.31 -26.1,63.19 -34.9,34.83 -91.5,34.84 -126.4,0 l -430.4,-430.44 -430.5,430.44 c -34.8,34.84 -91.5,34.84 -126.3,0 -16.9,-16.88 -26.2,-39.32 -26.2,-63.19 0,-23.87 9.3,-46.31 26.2,-63.17 l 430.4,-430.44 -430.4,-430.42 c -16.9,-16.88 -26.2,-39.32 -26.2,-63.19 0,-23.87 9.3,-46.31 26.2,-63.18 16.8,-16.88 39.3,-26.18 63.2,-26.18 23.8,0 46.3,9.3 63.1,26.18 l 430.5,430.43 430.4,-430.43 c 16.9,-16.88 39.3,-26.18 63.2,-26.18 23.8,0 46.3,9.3 63.2,26.17 16.8,16.88 26.1,39.32 26.1,63.19 0,23.87 -9.3,46.31 -26.1,63.18 l -430.5,430.43"
           style="fill:#ffbe4d;fill-opacity:1;fill-rule:nonzero;stroke:none"
           id="path36" /><path
           d="m 6220.24,12294.6 1146.41,-1098.6 -86.58,-90.3 -1146.41,1098.6 86.58,90.3 z m 1264.35,-1096.1 -1266.86,1214 -202.01,-210.8 1266.86,-1214 202.01,210.8"
           style="fill:#bdebe6;fill-opacity:1;fill-rule:nonzero;stroke:none"
           id="path38" /><path
           d="M 6220.24,1074.6 7366.65,-23.9727 7280.07,-114.316 6133.66,984.262 6220.24,1074.6 Z M 7484.59,-21.4609 6217.73,1192.55 6015.72,981.746 7282.58,-232.262 7484.59,-21.4609"
           style="fill:#bdebe6;fill-opacity:1;fill-rule:nonzero;stroke:none"
           id="path40" /><path
           d="m 5794.82,8992.87 c -84.1,-539.23 -589.4,-908.19 -1128.64,-824.09 -539.23,84.09 -908.19,589.4 -824.09,1128.63 84.1,539.23 589.4,908.19 1128.64,824.09 539.23,-84.1 908.19,-589.4 824.09,-1128.63"
           style="fill:#e89c38;fill-opacity:1;fill-rule:nonzero;stroke:none"
           id="path42" /><path
           d="m 7066.9,1571.68 c 0,-116.83 -94.71,-211.54 -211.54,-211.54 -116.82,0 -211.53,94.71 -211.53,211.54 0,116.82 94.71,211.53 211.53,211.53 116.83,0 211.54,-94.71 211.54,-211.53"
           style="fill:#e89c38;fill-opacity:1;fill-rule:nonzero;stroke:none"
           id="path44" /><path
           d="m 5665,9667.15 c 64.04,-35.47 144.71,-12.31 180.18,51.73 35.47,64.05 12.31,144.71 -51.73,180.18 -21.37,11.84 -44.58,17.01 -67.36,16.45 -25.78,-8.27 -51.35,-17.15 -76.7,-26.67 -14.38,-10.84 -26.82,-24.74 -36.11,-41.51 -35.47,-64.05 -12.31,-144.71 51.72,-180.18"
           style="fill:#ffbe4d;fill-opacity:1;fill-rule:nonzero;stroke:none"
           id="path46" /><path
           d="m 5598.21,9272.97 0,0 c 35.47,64.04 12.31,144.71 -51.74,180.18 -64.03,35.47 -144.7,12.31 -180.17,-51.74 l 0,0 c -35.46,-64.03 -12.3,-144.7 51.73,-180.16 64.04,-35.48 144.71,-12.32 180.18,51.72"
           style="fill:#ffbe4d;fill-opacity:1;fill-rule:nonzero;stroke:none"
           id="path48" /><path
           d="m 5351.23,8827.06 c 35.47,64.04 12.31,144.71 -51.73,180.18 -64.03,35.46 -144.7,12.3 -180.17,-51.74 -35.47,-64.03 -12.31,-144.71 51.72,-180.18 64.04,-35.47 144.72,-12.3 180.18,51.74"
           style="fill:#ffbe4d;fill-opacity:1;fill-rule:nonzero;stroke:none"
           id="path50" /><path
           d="m 5104.26,8381.14 c 35.47,64.05 12.31,144.71 -51.73,180.18 -64.04,35.47 -144.71,12.31 -180.18,-51.73 -35.46,-64.04 -12.3,-144.71 51.73,-180.17 64.05,-35.47 144.71,-12.31 180.18,51.72"
           style="fill:#ffbe4d;fill-opacity:1;fill-rule:nonzero;stroke:none"
           id="path52" /><path
           d="m 4857.28,7935.23 c 35.47,64.04 12.31,144.71 -51.73,180.18 -64.03,35.47 -144.7,12.31 -180.17,-51.74 -9.29,-16.78 -14.47,-34.68 -16.03,-52.63 5.38,-26.54 11.41,-52.92 18.09,-79.16 11.6,-19.61 28.29,-36.55 49.66,-48.38 64.05,-35.48 144.72,-12.31 180.18,51.73"
           style="fill:#ffbe4d;fill-opacity:1;fill-rule:nonzero;stroke:none"
           id="path54" /><path
           d="m 5323.92,9716.24 c 2.08,3.75 3.92,7.56 5.59,11.41 -38.26,-24.82 -75.61,-51.24 -111.89,-79.33 43.09,3.2 83.8,27.29 106.3,67.92"
           style="fill:#ffbe4d;fill-opacity:1;fill-rule:nonzero;stroke:none"
           id="path56" /><path
           d="m 4896.78,9218.59 c 64.03,-35.46 144.7,-12.3 180.17,51.74 l 0,0 c 35.46,64.03 12.3,144.7 -51.73,180.17 l 0,0 c -4.76,2.63 -9.61,4.83 -14.52,6.84 -56.66,-62 -109.09,-128.98 -156.76,-200.76 11.02,-15.17 25.34,-28.3 42.84,-37.99 l 0,0"
           style="fill:#ffbe4d;fill-opacity:1;fill-rule:nonzero;stroke:none"
           id="path58" /><path
           d="m 4649.8,8772.68 c 64.03,-35.47 144.7,-12.31 180.17,51.74 35.47,64.03 12.31,144.7 -51.73,180.16 l 0,0 c -17.49,9.69 -36.22,14.86 -54.92,16.16 -35.55,-78.48 -64.53,-158.46 -87.02,-239.38 4.3,-3.1 8.74,-6.05 13.5,-8.68 l 0,0"
           style="fill:#ffbe4d;fill-opacity:1;fill-rule:nonzero;stroke:none"
           id="path60" /><path
           d="m 4584.17,8504.64 c -4.56,-45.66 -7.14,-91.33 -7.88,-136.93 2.37,3.45 4.63,7.05 6.71,10.79 22.5,40.63 21.33,87.92 1.17,126.14"
           style="fill:#ffbe4d;fill-opacity:1;fill-rule:nonzero;stroke:none"
           id="path62" /><path
           d="m 7454.16,9258.9 c 48.24,-26.71 105.89,-20.14 146.58,12.09 -49.4,72.7 -104.62,141.96 -165.92,206.69 -12.79,-10.39 -23.91,-23.29 -32.39,-38.59 -35.47,-64.04 -12.31,-144.72 51.73,-180.19"
           style="fill:#ffbe4d;fill-opacity:1;fill-rule:nonzero;stroke:none"
           id="path64" /><path
           d="m 7155.46,8993.17 c -35.48,-64.04 -12.31,-144.71 51.73,-180.18 64.03,-35.47 144.7,-12.31 180.17,51.74 35.47,64.04 12.31,144.71 -51.72,180.17 -64.05,35.48 -144.71,12.31 -180.18,-51.73"
           style="fill:#ffbe4d;fill-opacity:1;fill-rule:nonzero;stroke:none"
           id="path66" /><path
           d="m 6908.48,8547.26 0,0 c -35.46,-64.04 -12.3,-144.7 51.74,-180.17 64.03,-35.47 144.7,-12.31 180.17,51.72 l 0,0 c 35.47,64.05 12.31,144.71 -51.73,180.18 -64.04,35.47 -144.71,12.31 -180.18,-51.73"
           style="fill:#ffbe4d;fill-opacity:1;fill-rule:nonzero;stroke:none"
           id="path68" /><path
           d="m 6661.51,8101.34 c -35.47,-64.03 -12.31,-144.71 51.73,-180.18 64.03,-35.46 144.71,-12.29 180.17,51.74 35.47,64.04 12.31,144.71 -51.72,180.18 -64.05,35.47 -144.71,12.31 -180.18,-51.74"
           style="fill:#ffbe4d;fill-opacity:1;fill-rule:nonzero;stroke:none"
           id="path70" /><path
           d="m 6414.53,7655.43 c -35.46,-64.03 -12.3,-144.7 51.74,-180.17 64.03,-35.47 144.7,-12.31 180.17,51.73 35.47,64.04 12.31,144.71 -51.73,180.17 -64.04,35.47 -144.71,12.31 -180.18,-51.73"
           style="fill:#ffbe4d;fill-opacity:1;fill-rule:nonzero;stroke:none"
           id="path72" /><path
           d="m 6167.56,7209.52 c -35.47,-64.04 -12.31,-144.71 51.73,-180.18 64.03,-35.47 144.71,-12.3 180.17,51.73 35.47,64.05 12.31,144.71 -51.72,180.18 -64.04,35.47 -144.71,12.31 -180.18,-51.73"
           style="fill:#ffbe4d;fill-opacity:1;fill-rule:nonzero;stroke:none"
           id="path74" /><path
           d="m 6100.76,6815.34 c -64.04,35.47 -144.71,12.31 -180.18,-51.74 -8.48,-15.3 -13.51,-31.56 -15.53,-47.92 87.39,-17.62 175.39,-27.7 263.22,-31.01 5.74,51.59 -19.27,103.95 -67.51,130.67"
           style="fill:#ffbe4d;fill-opacity:1;fill-rule:nonzero;stroke:none"
           id="path76" /><path
           d="m 6881.18,9436.44 c -35.47,-64.04 -12.31,-144.71 51.72,-180.18 64.05,-35.47 144.71,-12.31 180.19,51.74 35.46,64.03 12.3,144.7 -51.74,180.17 -64.04,35.46 -144.7,12.3 -180.17,-51.73"
           style="fill:#ffbe4d;fill-opacity:1;fill-rule:nonzero;stroke:none"
           id="path78" /><path
           d="m 6866.11,8862.08 c 35.47,64.04 12.31,144.7 -51.74,180.18 -64.03,35.46 -144.7,12.3 -180.16,-51.73 -35.48,-64.05 -12.31,-144.71 51.72,-180.18 64.04,-35.47 144.71,-12.31 180.18,51.73"
           style="fill:#ffbe4d;fill-opacity:1;fill-rule:nonzero;stroke:none"
           id="path80" /><path
           d="m 6619.14,8416.17 0,0 c 35.46,64.03 12.3,144.7 -51.74,180.17 -64.04,35.47 -144.7,12.31 -180.17,-51.73 l 0,0 c -35.47,-64.04 -12.31,-144.71 51.72,-180.17 64.05,-35.47 144.71,-12.31 180.19,51.73"
           style="fill:#ffbe4d;fill-opacity:1;fill-rule:nonzero;stroke:none"
           id="path82" /><path
           d="m 6372.16,7970.26 c 35.47,64.03 12.31,144.7 -51.74,180.17 -64.03,35.46 -144.7,12.3 -180.16,-51.73 -35.47,-64.04 -12.31,-144.71 51.72,-180.18 64.04,-35.47 144.71,-12.31 180.18,51.74"
           style="fill:#ffbe4d;fill-opacity:1;fill-rule:nonzero;stroke:none"
           id="path84" /><path
           d="m 5893.28,7652.79 c -35.47,-64.05 -12.31,-144.71 51.72,-180.18 64.05,-35.47 144.71,-12.31 180.19,51.73 35.46,64.04 12.3,144.7 -51.74,180.17 -64.04,35.47 -144.7,12.31 -180.17,-51.72"
           style="fill:#ffbe4d;fill-opacity:1;fill-rule:nonzero;stroke:none"
           id="path86" /><path
           d="m 5646.31,7206.87 c -35.47,-64.04 -12.31,-144.71 51.72,-180.17 64.04,-35.48 144.71,-12.31 180.18,51.73 35.47,64.03 12.31,144.71 -51.73,180.18 -64.03,35.47 -144.71,12.3 -180.17,-51.74"
           style="fill:#ffbe4d;fill-opacity:1;fill-rule:nonzero;stroke:none"
           id="path88" /><path
           d="m 7704.02,8106.64 0,0 c -35.46,-64.04 -12.3,-144.7 51.74,-180.17 24,-13.29 50.32,-18.35 75.73,-16.11 22.3,82.95 38.11,166.74 47.16,250.73 -63.09,31.23 -140.17,7.77 -174.63,-54.45"
           style="fill:#ffbe4d;fill-opacity:1;fill-rule:nonzero;stroke:none"
           id="path90" /><path
           d="m 7637.23,7712.46 c -64.04,35.47 -144.71,12.31 -180.18,-51.74 -35.47,-64.03 -12.31,-144.71 51.73,-180.18 47.65,-26.39 104.48,-20.27 145.07,10.95 8.99,15.08 18.14,29.99 26.7,45.45 8.56,15.46 16.34,31.13 24.36,46.73 4.93,50.97 -20.03,102.4 -67.68,128.79"
           style="fill:#ffbe4d;fill-opacity:1;fill-rule:nonzero;stroke:none"
           id="path92" /><path
           d="m 7210.07,7214.81 c -34.45,-62.21 -13.45,-140 46.48,-176.91 66.4,52.22 129.04,110.08 187.53,173 -11.59,22.72 -29.83,42.35 -53.83,55.64 -64.04,35.47 -144.71,12.31 -180.18,-51.73"
           style="fill:#ffbe4d;fill-opacity:1;fill-rule:nonzero;stroke:none"
           id="path94" /><path
           d="m 7728.44,8815.64 c 29.57,-16.37 62.65,-20.11 93.21,-13.24 -24.45,83.92 -55.78,165.78 -93.2,245.01 -21.03,-11.64 -39.22,-29.01 -51.73,-51.59 -35.47,-64.04 -12.31,-144.71 51.72,-180.18"
           style="fill:#ffbe4d;fill-opacity:1;fill-rule:nonzero;stroke:none"
           id="path96" /><path
           d="m 7429.75,8549.91 c -35.48,-64.05 -12.31,-144.71 51.72,-180.18 64.04,-35.47 144.71,-12.31 180.18,51.73 35.47,64.04 12.31,144.7 -51.74,180.18 -64.03,35.46 -144.7,12.3 -180.16,-51.73"
           style="fill:#ffbe4d;fill-opacity:1;fill-rule:nonzero;stroke:none"
           id="path98" /><path
           d="m 7182.77,8103.99 0,0 c -35.47,-64.04 -12.31,-144.71 51.73,-180.17 64.04,-35.47 144.71,-12.31 180.18,51.73 l 0,0 c 35.46,64.03 12.3,144.7 -51.74,180.17 -64.04,35.47 -144.7,12.31 -180.17,-51.73"
           style="fill:#ffbe4d;fill-opacity:1;fill-rule:nonzero;stroke:none"
           id="path100" /><path
           d="m 6935.8,7658.08 c -35.47,-64.04 -12.31,-144.71 51.72,-180.18 64.04,-35.47 144.71,-12.31 180.18,51.74 35.47,64.03 12.31,144.7 -51.74,180.17 -64.03,35.46 -144.7,12.3 -180.16,-51.73"
           style="fill:#ffbe4d;fill-opacity:1;fill-rule:nonzero;stroke:none"
           id="path102" /><path
           d="m 6688.82,7212.17 c -35.47,-64.05 -12.31,-144.71 51.73,-180.18 64.04,-35.47 144.71,-12.31 180.18,51.73 35.46,64.04 12.3,144.7 -51.74,180.17 -64.04,35.47 -144.7,12.31 -180.17,-51.72"
           style="fill:#ffbe4d;fill-opacity:1;fill-rule:nonzero;stroke:none"
           id="path104" /><path
           d="m 6441.85,6766.25 c -12.51,-22.58 -17.59,-47.23 -16.3,-71.23 87.02,10.32 173.03,27.19 257.14,50.98 -10.39,29.56 -31.1,55.62 -60.67,71.99 -64.03,35.47 -144.71,12.3 -180.17,-51.74"
           style="fill:#ffbe4d;fill-opacity:1;fill-rule:nonzero;stroke:none"
           id="path106" /><path
           d="m 6658.62,9699.52 c 64.05,-35.47 144.72,-12.3 180.18,51.74 22.95,41.43 21.23,89.75 -0.1,128.36 -56.02,22.15 -112.65,41.13 -169.77,56.8 -25.41,-11.31 -47.53,-30.52 -62.04,-56.71 -35.47,-64.04 -12.31,-144.72 51.73,-180.19"
           style="fill:#ffbe4d;fill-opacity:1;fill-rule:nonzero;stroke:none"
           id="path108" /><path
           d="m 6591.83,9305.34 c 35.47,64.05 12.31,144.71 -51.73,180.18 -64.05,35.48 -144.71,12.32 -180.18,-51.73 -35.48,-64.04 -12.32,-144.71 51.73,-180.18 64.04,-35.47 144.71,-12.31 180.18,51.73"
           style="fill:#ffbe4d;fill-opacity:1;fill-rule:nonzero;stroke:none"
           id="path110" /><path
           d="m 6344.85,8859.43 0,0 c 35.48,64.04 12.32,144.71 -51.73,180.18 -64.04,35.47 -144.71,12.31 -180.18,-51.73 l 0,0 c -35.47,-64.04 -12.31,-144.7 51.74,-180.17 64.04,-35.48 144.71,-12.32 180.17,51.72"
           style="fill:#ffbe4d;fill-opacity:1;fill-rule:nonzero;stroke:none"
           id="path112" /><path
           d="m 6097.88,8413.52 c 35.47,64.04 12.31,144.71 -51.73,180.18 -64.05,35.47 -144.71,12.31 -180.18,-51.74 -35.47,-64.03 -12.32,-144.71 51.73,-180.18 64.04,-35.47 144.71,-12.3 180.18,51.74"
           style="fill:#ffbe4d;fill-opacity:1;fill-rule:nonzero;stroke:none"
           id="path114" /><path
           d="m 5850.91,7967.6 c 35.47,64.05 12.31,144.71 -51.74,180.18 -64.04,35.48 -144.71,12.31 -180.18,-51.73 -35.47,-64.03 -12.3,-144.7 51.74,-180.17 64.04,-35.47 144.71,-12.31 180.18,51.72"
           style="fill:#ffbe4d;fill-opacity:1;fill-rule:nonzero;stroke:none"
           id="path116" /><path
           d="m 5603.93,7521.69 c 35.47,64.04 12.31,144.71 -51.73,180.18 -64.05,35.47 -144.71,12.31 -180.18,-51.73 -35.47,-64.04 -12.31,-144.71 51.73,-180.18 64.04,-35.48 144.71,-12.31 180.18,51.73"
           style="fill:#ffbe4d;fill-opacity:1;fill-rule:nonzero;stroke:none"
           id="path118" /><path
           d="m 5356.96,7075.78 c 35.47,64.04 12.31,144.71 -51.74,180.18 -64.04,35.47 -144.71,12.31 -180.18,-51.74 -14.51,-26.19 -19.06,-55.14 -15.16,-82.67 43.59,-40.1 89.72,-78.05 138.21,-113.79 44.04,2.4 85.92,26.58 108.87,68.02"
           style="fill:#ffbe4d;fill-opacity:1;fill-rule:nonzero;stroke:none"
           id="path120" /><path
           d="m 6317.54,9748.62 c 35.47,64.03 12.31,144.7 -51.73,180.17 -64.04,35.46 -144.7,12.3 -180.17,-51.73 -35.47,-64.04 -12.31,-144.71 51.72,-180.18 64.05,-35.47 144.71,-12.31 180.18,51.74"
           style="fill:#ffbe4d;fill-opacity:1;fill-rule:nonzero;stroke:none"
           id="path122" /><path
           d="m 6070.57,9302.7 c 35.47,64.04 12.31,144.7 -51.74,180.18 -64.03,35.46 -144.7,12.3 -180.17,-51.73 -35.47,-64.05 -12.31,-144.71 51.73,-180.18 64.04,-35.47 144.71,-12.31 180.18,51.73"
           style="fill:#ffbe4d;fill-opacity:1;fill-rule:nonzero;stroke:none"
           id="path124" /><path
           d="m 5823.59,8856.79 0,0 c 35.47,64.03 12.31,144.7 -51.73,180.17 -64.04,35.47 -144.7,12.31 -180.17,-51.73 l 0,0 c -35.47,-64.04 -12.31,-144.71 51.72,-180.17 64.05,-35.47 144.71,-12.31 180.18,51.73"
           style="fill:#ffbe4d;fill-opacity:1;fill-rule:nonzero;stroke:none"
           id="path126" /><path
           d="m 5576.62,8410.88 c 35.47,64.03 12.31,144.7 -51.74,180.17 -64.03,35.46 -144.7,12.3 -180.16,-51.73 -35.48,-64.04 -12.32,-144.71 51.72,-180.18 64.04,-35.47 144.71,-12.31 180.18,51.74"
           style="fill:#ffbe4d;fill-opacity:1;fill-rule:nonzero;stroke:none"
           id="path128" /><path
           d="m 5329.65,7964.96 c 35.46,64.04 12.3,144.7 -51.74,180.17 -64.04,35.47 -144.7,12.31 -180.17,-51.72 -35.47,-64.05 -12.31,-144.71 51.72,-180.18 64.05,-35.47 144.71,-12.31 180.19,51.73"
           style="fill:#ffbe4d;fill-opacity:1;fill-rule:nonzero;stroke:none"
           id="path130" /><path
           d="m 5082.67,7519.05 c 35.47,64.03 12.31,144.71 -51.73,180.18 -64.04,35.47 -144.71,12.3 -180.17,-51.74 -35.48,-64.04 -12.31,-144.71 51.72,-180.17 64.04,-35.47 144.71,-12.31 180.18,51.73"
           style="fill:#ffbe4d;fill-opacity:1;fill-rule:nonzero;stroke:none"
           id="path132" /><path
           d="m 7372.36,4925.16 c -35.56,0 -70.98,14.5 -96.65,43 -170.48,189.32 -257.05,433.7 -243.73,688.12 13.31,254.42 124.91,488.43 314.23,658.92 390.83,351.95 995.11,320.31 1347.04,-70.5 48.05,-53.35 43.75,-135.54 -9.6,-183.59 -53.35,-48.05 -135.56,-43.74 -183.6,9.61 -124.01,137.71 -294.24,218.89 -479.31,228.57 -185.04,9.66 -362.83,-53.28 -500.54,-177.29 -137.71,-124.02 -218.89,-294.24 -228.58,-479.3 -9.68,-185.07 53.28,-362.84 177.3,-500.55 48.04,-53.35 43.74,-135.55 -9.61,-183.59 -24.85,-22.38 -55.96,-33.4 -86.95,-33.4"
           style="fill:#bdebe6;fill-opacity:1;fill-rule:nonzero;stroke:none"
           id="path134" /><path
           d="m 1911.58,1315.06 c 4.74,35.24 23.84,68.41 55.51,90.05 210.35,143.74 464.08,196.96 714.46,149.85 250.38,-47.11 467.43,-188.89 611.16,-399.25 296.73,-434.245 184.83,-1028.913 -249.4,-1325.628 -59.28,-40.508 -140.17,-25.289 -180.68,33.992 -40.51,59.2815 -25.27,140.17991 34,180.676 153.01,104.555 256.15,262.441 290.41,444.566 34.24,182.102 -4.44,366.7 -109,519.714 -104.56,153.01 -262.43,256.15 -444.56,290.41 -182.13,34.27 -366.7,-4.44 -519.71,-109 -59.28,-40.51 -140.17,-25.29 -180.68,34 -18.86,27.6 -25.64,59.9 -21.51,90.62"
           style="fill:#937ab9;fill-opacity:1;fill-rule:nonzero;stroke:none"
           id="path136" /><path
           d="m 1911.58,12535.1 c 4.74,35.2 23.84,68.4 55.51,90 210.35,143.7 464.08,197 714.46,149.9 250.38,-47.1 467.43,-188.9 611.16,-399.3 296.73,-434.2 184.83,-1028.9 -249.4,-1325.6 -59.28,-40.5 -140.17,-25.3 -180.68,34 -40.51,59.3 -25.27,140.2 34,180.7 153.01,104.5 256.15,262.4 290.41,444.5 34.24,182.1 -4.44,366.7 -109,519.7 -104.56,153 -262.43,256.2 -444.56,290.4 -182.13,34.3 -366.7,-4.4 -519.71,-109 -59.28,-40.5 -140.17,-25.2 -180.68,34 -18.86,27.6 -25.64,59.9 -21.51,90.7"
           style="fill:#937ab9;fill-opacity:1;fill-rule:nonzero;stroke:none"
           id="path138" /><path
           d="m 11668.2,3544.02 c -175.6,0 -342.7,75.78 -458.3,207.9 -77.7,88.73 -189.8,139.63 -307.7,139.63 -118,0 -230.1,-50.9 -307.8,-139.63 -115.6,-132.12 -282.7,-207.9 -458.2,-207.9 -175.62,0 -342.64,75.78 -458.28,207.9 -77.66,88.73 -189.83,139.63 -307.75,139.63 -117.92,0 -230.09,-50.9 -307.75,-139.63 -36.37,-41.56 -99.55,-45.77 -141.11,-9.39 -41.55,36.37 -45.76,99.55 -9.38,141.11 115.63,132.12 282.66,207.9 458.24,207.91 175.58,0 342.61,-75.78 458.25,-207.91 77.66,-88.73 189.78,-139.62 307.78,-139.62 117.9,0 230.1,50.89 307.7,139.62 115.7,132.12 282.7,207.91 458.3,207.91 175.5,0 342.6,-75.79 458.2,-207.91 77.7,-88.73 189.8,-139.62 307.8,-139.62 117.9,0 230,50.89 307.7,139.62 115.6,132.12 282.7,207.91 458.2,207.91 175.6,0 342.6,-75.79 458.3,-207.91 36.4,-41.56 32.2,-104.74 -9.4,-141.11 -41.6,-36.37 -104.7,-32.18 -141.1,9.39 -77.7,88.73 -189.8,139.63 -307.8,139.63 -117.9,0 -230,-50.9 -307.7,-139.63 -115.6,-132.12 -282.7,-207.9 -458.2,-207.9"
           style="fill:#ffbe4d;fill-opacity:1;fill-rule:nonzero;stroke:none"
           id="path140" /><path
           d="m 11668.2,2996.49 c -175.6,0 -342.7,75.78 -458.3,207.9 -77.7,88.73 -189.8,139.63 -307.7,139.63 -118,0 -230.1,-50.9 -307.8,-139.63 -115.6,-132.12 -282.7,-207.9 -458.2,-207.9 -175.62,0 -342.64,75.78 -458.28,207.9 -77.66,88.73 -189.83,139.63 -307.75,139.63 -117.92,0 -230.09,-50.9 -307.75,-139.63 -36.37,-41.56 -99.55,-45.77 -141.11,-9.39 -41.55,36.37 -45.76,99.55 -9.38,141.11 115.63,132.12 282.66,207.9 458.24,207.91 175.58,0 342.61,-75.78 458.25,-207.91 77.66,-88.73 189.78,-139.62 307.78,-139.62 117.9,0 230.1,50.89 307.7,139.62 115.7,132.12 282.7,207.91 458.3,207.91 175.5,0 342.6,-75.79 458.2,-207.91 77.7,-88.73 189.8,-139.62 307.8,-139.62 117.9,0 230,50.89 307.7,139.62 115.6,132.12 282.7,207.91 458.2,207.91 175.6,0 342.6,-75.79 458.3,-207.91 36.4,-41.56 32.2,-104.74 -9.4,-141.11 -41.6,-36.36 -104.7,-32.18 -141.1,9.39 -77.7,88.73 -189.8,139.63 -307.8,139.63 -117.9,0 -230,-50.9 -307.7,-139.63 -115.6,-132.12 -282.7,-207.9 -458.2,-207.9"
           style="fill:#ffbe4d;fill-opacity:1;fill-rule:nonzero;stroke:none"
           id="path142" /><path
           d="m 11668.2,2448.96 c -175.6,0 -342.7,75.78 -458.3,207.9 -77.7,88.73 -189.8,139.63 -307.7,139.63 -118,0 -230.1,-50.9 -307.8,-139.63 -115.6,-132.12 -282.7,-207.9 -458.2,-207.9 -175.62,0 -342.64,75.78 -458.28,207.9 -77.66,88.73 -189.83,139.63 -307.75,139.63 -117.92,0 -230.09,-50.9 -307.75,-139.63 -36.37,-41.56 -99.55,-45.77 -141.11,-9.39 -41.55,36.38 -45.76,99.55 -9.38,141.11 115.63,132.13 282.66,207.9 458.24,207.91 175.58,0 342.61,-75.78 458.25,-207.91 77.66,-88.73 189.78,-139.62 307.78,-139.62 117.9,0 230.1,50.89 307.7,139.62 115.7,132.13 282.7,207.91 458.3,207.91 175.5,0 342.6,-75.78 458.2,-207.91 77.7,-88.73 189.8,-139.62 307.8,-139.62 117.9,0 230,50.89 307.7,139.62 115.6,132.13 282.7,207.91 458.2,207.91 175.6,0 342.6,-75.78 458.3,-207.91 36.4,-41.56 32.2,-104.73 -9.4,-141.11 -41.6,-36.36 -104.7,-32.17 -141.1,9.39 -77.7,88.73 -189.8,139.63 -307.8,139.63 -117.9,0 -230,-50.9 -307.7,-139.63 -115.6,-132.12 -282.7,-207.9 -458.2,-207.9"
           style="fill:#ffbe4d;fill-opacity:1;fill-rule:nonzero;stroke:none"
           id="path144" /><path
           d="m 448.152,3544.02 c -175.582,0 -342.605,75.78 -458.2418,207.9 -77.6641,88.73 -189.8362,139.63 -307.7582,139.63 -117.914,0 -230.082,-50.9 -307.742,-139.63 -115.64,-132.12 -282.66,-207.9 -458.24,-207.9 -175.59,0 -342.61,75.78 -458.25,207.9 -77.66,88.73 -189.83,139.63 -307.75,139.63 -117.92,0 -230.09,-50.9 -307.75,-139.63 -36.37,-41.56 -99.55,-45.77 -141.11,-9.39 -41.55,36.37 -45.76,99.55 -9.39,141.11 115.64,132.12 282.67,207.9 458.25,207.91 175.58,0 342.61,-75.78 458.25,-207.91 77.66,-88.73 189.83,-139.62 307.75,-139.62 117.912,0 230.08,50.89 307.74,139.62 115.641,132.12 282.664,207.91 458.25,207.91 175.578,0 342.6017,-75.79 458.242,-207.91 77.661,-88.73 189.832,-139.62 307.754,-139.62 117.914,0 230.082,50.89 307.742,139.62 115.641,132.12 282.662,207.91 458.252,207.91 175.58,0 342.6,-75.79 458.24,-207.91 36.37,-41.56 32.17,-104.74 -9.39,-141.11 -41.56,-36.37 -104.74,-32.18 -141.11,9.39 -77.66,88.73 -189.83,139.63 -307.74,139.63 -117.92,0 -230.091,-50.9 -307.752,-139.63 -115.64,-132.12 -282.66,-207.9 -458.246,-207.9"
           style="fill:#ffbe4d;fill-opacity:1;fill-rule:nonzero;stroke:none"
           id="path146" /><path
           d="m 448.152,2996.49 c -175.582,0 -342.605,75.78 -458.2418,207.9 -77.6641,88.73 -189.8362,139.63 -307.7582,139.63 -117.914,0 -230.082,-50.9 -307.742,-139.63 -115.64,-132.12 -282.66,-207.9 -458.24,-207.9 -175.59,0 -342.61,75.78 -458.25,207.9 -77.66,88.73 -189.83,139.63 -307.75,139.63 -117.92,0 -230.09,-50.9 -307.75,-139.63 -36.37,-41.56 -99.55,-45.77 -141.11,-9.39 -41.55,36.37 -45.76,99.55 -9.39,141.11 115.64,132.12 282.67,207.9 458.25,207.91 175.58,0 342.61,-75.78 458.25,-207.91 77.66,-88.73 189.83,-139.62 307.75,-139.62 117.912,0 230.08,50.89 307.74,139.62 115.641,132.12 282.664,207.91 458.25,207.91 175.578,0 342.6017,-75.79 458.242,-207.91 77.661,-88.73 189.832,-139.62 307.754,-139.62 117.914,0 230.082,50.89 307.742,139.62 115.641,132.12 282.662,207.91 458.252,207.91 175.58,0 342.6,-75.79 458.24,-207.91 36.37,-41.56 32.17,-104.74 -9.39,-141.11 -41.56,-36.36 -104.74,-32.18 -141.11,9.39 -77.66,88.73 -189.83,139.63 -307.74,139.63 -117.92,0 -230.091,-50.9 -307.752,-139.63 -115.64,-132.12 -282.66,-207.9 -458.246,-207.9"
           style="fill:#ffbe4d;fill-opacity:1;fill-rule:nonzero;stroke:none"
           id="path148" /><path
           d="m 448.152,2448.96 c -175.582,0 -342.605,75.78 -458.2418,207.9 -77.6641,88.73 -189.8362,139.63 -307.7582,139.63 -117.914,0 -230.082,-50.9 -307.742,-139.63 -115.64,-132.12 -282.66,-207.9 -458.24,-207.9 -175.59,0 -342.61,75.78 -458.25,207.9 -77.66,88.73 -189.83,139.63 -307.75,139.63 -117.92,0 -230.09,-50.9 -307.75,-139.63 -36.37,-41.56 -99.55,-45.77 -141.11,-9.39 -41.55,36.38 -45.76,99.55 -9.39,141.11 115.64,132.13 282.67,207.9 458.25,207.91 175.58,0 342.61,-75.78 458.25,-207.91 77.66,-88.73 189.83,-139.62 307.75,-139.62 117.912,0 230.08,50.89 307.74,139.62 115.641,132.13 282.664,207.91 458.25,207.91 175.578,0 342.6017,-75.78 458.242,-207.91 77.661,-88.73 189.832,-139.62 307.754,-139.62 117.914,0 230.082,50.89 307.742,139.62 115.641,132.13 282.662,207.91 458.252,207.91 175.58,0 342.6,-75.78 458.24,-207.91 36.37,-41.56 32.17,-104.73 -9.39,-141.11 -41.56,-36.36 -104.74,-32.17 -141.11,9.39 -77.66,88.73 -189.83,139.63 -307.74,139.63 -117.92,0 -230.091,-50.9 -307.752,-139.63 -115.64,-132.12 -282.66,-207.9 -458.246,-207.9"
           style="fill:#ffbe4d;fill-opacity:1;fill-rule:nonzero;stroke:none"
           id="path150" /><path
           d="M 6492.66,3361.39 4408.38,1943.61 2990.59,4027.89 5074.88,5445.67 6492.66,3361.39"
           style="fill:#fdbfbc;fill-opacity:1;fill-rule:nonzero;stroke:none"
           id="path152" /><path
           d="m 10758.1,5302.4 -651.7,337.21 337.3,651.71 651.7,-337.21 -337.3,-651.71"
           style="fill:#937ab9;fill-opacity:1;fill-rule:nonzero;stroke:none"
           id="path154" /><path
           d="m 5900.28,4870.67 469.91,-624.51 -813.67,-65.44 343.76,689.95 z"
           style="fill:#937ab9;fill-opacity:1;fill-rule:nonzero;stroke:none"
           id="path156" /><path
           d="M 417.801,11117 -1415.93,10052.5 -989.379,12190.1 417.801,11117 Z M -1539.75,9666.67 729.895,10984.3 c 39.222,22.7 64.484,63.6 67.324,108.8 2.844,45.3 -17.106,89 -53.16,116.5 l -1741.696,1328.2 c -37.243,28.4 -86.483,35.6 -130.273,19.1 -43.81,-16.6 -75.99,-54.6 -85.15,-100.5 l -527.95,-2645.78 c -10.44,-52.33 10.75,-105.92 54.15,-136.97 23.52,-16.82 51.21,-25.33 78.98,-25.33 23.47,0 47,6.08 68.13,18.35"
           style="fill:#fdbfbc;fill-opacity:1;fill-rule:nonzero;stroke:none"
           id="path158" /><path
           d="M 417.801,-103.004 -1415.93,-1167.54 -989.379,970.102 417.801,-103.004 Z M -1539.75,-1553.33 729.895,-235.727 c 39.222,22.766 64.484,63.622 67.324,108.875 2.844,45.2622 -17.106,88.9536 -53.16,116.4497 L -997.637,1317.8 c -37.243,28.4 -86.483,35.59 -130.273,19.05 -43.81,-16.55 -75.99,-54.5 -85.15,-100.42 l -527.95,-2645.81 c -10.44,-52.33 10.75,-105.92 54.15,-136.97 23.52,-16.82 51.21,-25.33 78.98,-25.33 23.47,0 47,6.08 68.13,18.35"
           style="fill:#fdbfbc;fill-opacity:1;fill-rule:nonzero;stroke:none"
           id="path160" /><path
           d="m 167.926,8367.73 430.426,430.43 c 16.886,16.87 26.179,39.31 26.179,63.18 0,23.87 -9.293,46.31 -26.176,63.19 -34.824,34.83 -91.503,34.84 -126.355,0 L 41.5664,8494.09 -388.867,8924.53 c -34.832,34.84 -91.524,34.84 -126.36,0 -16.878,-16.88 -26.171,-39.32 -26.171,-63.19 0,-23.87 9.293,-46.31 26.171,-63.17 l 430.434,-430.44 -430.434,-430.42 c -16.878,-16.88 -26.171,-39.32 -26.171,-63.19 0,-23.87 9.293,-46.31 26.171,-63.18 16.875,-16.88 39.313,-26.18 63.176,-26.18 23.871,0 46.309,9.3 63.184,26.18 L 41.5664,8241.37 472,7810.94 c 16.871,-16.88 39.313,-26.18 63.184,-26.18 23.863,0 46.3,9.3 63.171,26.17 16.883,16.88 26.176,39.32 26.176,63.19 0,23.87 -9.293,46.31 -26.176,63.18 l -430.429,430.43"
           style="fill:#ffbe4d;fill-opacity:1;fill-rule:nonzero;stroke:none"
           id="path162" /><path
           d="m 448.152,3544.02 c -175.582,0 -342.605,75.78 -458.2418,207.9 -77.6641,88.73 -189.8362,139.63 -307.7582,139.63 -117.914,0 -230.082,-50.9 -307.742,-139.63 -115.64,-132.12 -282.66,-207.9 -458.24,-207.9 -175.59,0 -342.61,75.78 -458.25,207.9 -77.66,88.73 -189.83,139.63 -307.75,139.63 -117.92,0 -230.09,-50.9 -307.75,-139.63 -36.37,-41.56 -99.55,-45.77 -141.11,-9.39 -41.55,36.37 -45.76,99.55 -9.39,141.11 115.64,132.12 282.67,207.9 458.25,207.91 175.58,0 342.61,-75.78 458.25,-207.91 77.66,-88.73 189.83,-139.62 307.75,-139.62 117.912,0 230.08,50.89 307.74,139.62 115.641,132.12 282.664,207.91 458.25,207.91 175.578,0 342.6017,-75.79 458.242,-207.91 77.661,-88.73 189.832,-139.62 307.754,-139.62 117.914,0 230.082,50.89 307.742,139.62 115.641,132.12 282.662,207.91 458.252,207.91 175.58,0 342.6,-75.79 458.24,-207.91 36.37,-41.56 32.17,-104.74 -9.39,-141.11 -41.56,-36.37 -104.74,-32.18 -141.11,9.39 -77.66,88.73 -189.83,139.63 -307.74,139.63 -117.92,0 -230.091,-50.9 -307.752,-139.63 -115.64,-132.12 -282.66,-207.9 -458.246,-207.9"
           style="fill:#ffbe4d;fill-opacity:1;fill-rule:nonzero;stroke:none"
           id="path164" /><path
           d="m 448.152,2996.49 c -175.582,0 -342.605,75.78 -458.2418,207.9 -77.6641,88.73 -189.8362,139.63 -307.7582,139.63 -117.914,0 -230.082,-50.9 -307.742,-139.63 -115.64,-132.12 -282.66,-207.9 -458.24,-207.9 -175.59,0 -342.61,75.78 -458.25,207.9 -77.66,88.73 -189.83,139.63 -307.75,139.63 -117.92,0 -230.09,-50.9 -307.75,-139.63 -36.37,-41.56 -99.55,-45.77 -141.11,-9.39 -41.55,36.37 -45.76,99.55 -9.39,141.11 115.64,132.12 282.67,207.9 458.25,207.91 175.58,0 342.61,-75.78 458.25,-207.91 77.66,-88.73 189.83,-139.62 307.75,-139.62 117.912,0 230.08,50.89 307.74,139.62 115.641,132.12 282.664,207.91 458.25,207.91 175.578,0 342.6017,-75.79 458.242,-207.91 77.661,-88.73 189.832,-139.62 307.754,-139.62 117.914,0 230.082,50.89 307.742,139.62 115.641,132.12 282.662,207.91 458.252,207.91 175.58,0 342.6,-75.79 458.24,-207.91 36.37,-41.56 32.17,-104.74 -9.39,-141.11 -41.56,-36.36 -104.74,-32.18 -141.11,9.39 -77.66,88.73 -189.83,139.63 -307.74,139.63 -117.92,0 -230.091,-50.9 -307.752,-139.63 -115.64,-132.12 -282.66,-207.9 -458.246,-207.9"
           style="fill:#ffbe4d;fill-opacity:1;fill-rule:nonzero;stroke:none"
           id="path166" /><path
           d="m 448.152,2448.96 c -175.582,0 -342.605,75.78 -458.2418,207.9 -77.6641,88.73 -189.8362,139.63 -307.7582,139.63 -117.914,0 -230.082,-50.9 -307.742,-139.63 -115.64,-132.12 -282.66,-207.9 -458.24,-207.9 -175.59,0 -342.61,75.78 -458.25,207.9 -77.66,88.73 -189.83,139.63 -307.75,139.63 -117.92,0 -230.09,-50.9 -307.75,-139.63 -36.37,-41.56 -99.55,-45.77 -141.11,-9.39 -41.55,36.38 -45.76,99.55 -9.39,141.11 115.64,132.13 282.67,207.9 458.25,207.91 175.58,0 342.61,-75.78 458.25,-207.91 77.66,-88.73 189.83,-139.62 307.75,-139.62 117.912,0 230.08,50.89 307.74,139.62 115.641,132.13 282.664,207.91 458.25,207.91 175.578,0 342.6017,-75.78 458.242,-207.91 77.661,-88.73 189.832,-139.62 307.754,-139.62 117.914,0 230.082,50.89 307.742,139.62 115.641,132.13 282.662,207.91 458.252,207.91 175.58,0 342.6,-75.78 458.24,-207.91 36.37,-41.56 32.17,-104.73 -9.39,-141.11 -41.56,-36.36 -104.74,-32.17 -141.11,9.39 -77.66,88.73 -189.83,139.63 -307.74,139.63 -117.92,0 -230.091,-50.9 -307.752,-139.63 -115.64,-132.12 -282.66,-207.9 -458.246,-207.9"
           style="fill:#ffbe4d;fill-opacity:1;fill-rule:nonzero;stroke:none"
           id="path168" /><path
           d="M 11637.8,11117 9804.07,10052.5 10230.6,12190.1 11637.8,11117 Z M 9680.25,9666.67 11949.9,10984.3 c 39.2,22.7 64.5,63.6 67.3,108.8 2.9,45.3 -17.1,89 -53.1,116.5 l -1741.7,1328.2 c -37.3,28.4 -86.5,35.6 -130.3,19.1 -43.8,-16.6 -76,-54.6 -85.2,-100.5 L 9478.99,9810.62 c -10.44,-52.33 10.75,-105.92 54.15,-136.97 23.52,-16.82 51.21,-25.33 78.98,-25.33 23.47,0 46.99,6.08 68.13,18.35"
           style="fill:#fdbfbc;fill-opacity:1;fill-rule:nonzero;stroke:none"
           id="path170" /><path
           d="m 6220.24,12294.6 1146.41,-1098.6 -86.58,-90.3 -1146.41,1098.6 86.58,90.3 z m 1264.35,-1096.1 -1266.86,1214 -202.01,-210.8 1266.86,-1214 202.01,210.8"
           style="fill:#bdebe6;fill-opacity:1;fill-rule:nonzero;stroke:none"
           id="path172" /><path
           d="m 1911.58,12535.1 c 4.74,35.2 23.84,68.4 55.51,90 210.35,143.7 464.08,197 714.46,149.9 250.38,-47.1 467.43,-188.9 611.16,-399.3 296.73,-434.2 184.83,-1028.9 -249.4,-1325.6 -59.28,-40.5 -140.17,-25.3 -180.68,34 -40.51,59.3 -25.27,140.2 34,180.7 153.01,104.5 256.15,262.4 290.41,444.5 34.24,182.1 -4.44,366.7 -109,519.7 -104.56,153 -262.43,256.2 -444.56,290.4 -182.13,34.3 -366.7,-4.4 -519.71,-109 -59.28,-40.5 -140.17,-25.2 -180.68,34 -18.86,27.6 -25.64,59.9 -21.51,90.7"
           style="fill:#937ab9;fill-opacity:1;fill-rule:nonzero;stroke:none"
           id="path174" /><path
           d="M 417.801,11117 -1415.93,10052.5 -989.379,12190.1 417.801,11117 Z M -1539.75,9666.67 729.895,10984.3 c 39.222,22.7 64.484,63.6 67.324,108.8 2.844,45.3 -17.106,89 -53.16,116.5 l -1741.696,1328.2 c -37.243,28.4 -86.483,35.6 -130.273,19.1 -43.81,-16.6 -75.99,-54.6 -85.15,-100.5 l -527.95,-2645.78 c -10.44,-52.33 10.75,-105.92 54.15,-136.97 23.52,-16.82 51.21,-25.33 78.98,-25.33 23.47,0 47,6.08 68.13,18.35"
           style="fill:#fdbfbc;fill-opacity:1;fill-rule:nonzero;stroke:none"
           id="path176" /></g></pattern></defs><sodipodi:namedview
     pagecolor="#ffffff"
     bordercolor="#666666"
     borderopacity="1"
     objecttolerance="10"
     gridtolerance="10"
     guidetolerance="10"
     inkscape:pageopacity="0"
     inkscape:pageshadow="2"
     inkscape:window-width="640"
     inkscape:window-height="480"
     id="namedview4" /><g
     id="g10"
     inkscape:groupmode="layer"
     inkscape:label="ink_ext_XXXXXX"
     transform="matrix(1.3333333,0,0,-1.3333333,0,1496)"><g
       id="g12"
       transform="scale(0.1)"><path
         d="M 11220,0 H 0 V 11220 H 11220 V 0"
         style="fill:#fff9f5;fill-opacity:1;fill-rule:nonzero;stroke:none"
         id="path14" /><path
         d="M 11220,0 H 0 V 11220 H 11220 V 0"
         style="fill:url(#pattern180);fill-opacity:1;fill-rule:nonzero;stroke:none"
         id="path182" /></g></g></svg>
