<svg width="1000" height="1000" viewBox="0 0 1000 1000" fill="none" xmlns="http://www.w3.org/2000/svg">
<path d="M700.173 749.731H680.877V730.291C680.877 723.58 675.279 717.981 668.567 717.981C661.858 717.981 656.258 723.58 656.258 730.291V749.731H637.772C631.061 749.731 625.463 755.329 625.463 762.04C625.463 768.751 631.061 774.35 637.772 774.35H656.258V792.69C656.258 799.401 661.858 805 668.567 805C675.279 805 680.877 799.401 680.877 792.69V774.35H700.173C706.884 774.35 712.483 768.751 712.483 762.04C712.483 755.329 706.884 749.731 700.173 749.731Z" fill="white"/>
<path d="M747.748 254.617H728.452V235.177C728.452 228.466 722.853 222.868 716.142 222.868C709.433 222.868 703.833 228.466 703.833 235.177V254.617H685.347C678.636 254.617 673.038 260.216 673.038 266.927C673.038 273.638 678.636 279.236 685.347 279.236H703.833V297.578C703.833 304.289 709.433 309.888 716.142 309.888C722.853 309.888 728.452 304.289 728.452 297.578V279.236H747.748C754.459 279.236 760.057 273.638 760.057 266.927C760.057 260.216 754.459 254.617 747.748 254.617Z" fill="white"/>
<path d="M332.85 717.531H315.945V700.5C315.945 694.62 311.04 689.717 305.16 689.717C299.281 689.717 294.376 694.62 294.376 700.5V717.531H278.18C272.301 717.531 267.397 722.438 267.397 728.316C267.397 734.194 272.301 739.099 278.18 739.099H294.376V755.168C294.376 761.047 299.281 765.952 305.16 765.952C311.04 765.952 315.945 761.047 315.945 755.168V739.099H332.85C338.729 739.099 343.634 734.194 343.634 728.316C343.634 722.438 338.729 717.531 332.85 717.531Z" fill="white"/>
<path d="M340.528 214.682H328.567V202.631C328.567 198.471 325.097 195 320.935 195C316.775 195 313.305 198.471 313.305 202.631V214.682H301.846C297.686 214.682 294.215 218.153 294.215 222.313C294.215 226.474 297.686 229.944 301.846 229.944H313.305V241.313C313.305 245.474 316.775 248.946 320.935 248.946C325.097 248.946 328.567 245.474 328.567 241.313V229.944H340.528C344.688 229.944 348.159 226.474 348.159 222.313C348.159 218.153 344.688 214.682 340.528 214.682Z" fill="white"/>
<path d="M635.823 229.103H624.408V217.602C624.408 213.633 621.097 210.32 617.126 210.32C613.156 210.32 609.844 213.633 609.844 217.602V229.103H598.908C594.938 229.103 591.626 232.415 591.626 236.385C591.626 240.356 594.938 243.667 598.908 243.667H609.844V254.518C609.844 258.487 613.156 261.799 617.126 261.799C621.097 261.799 624.408 258.487 624.408 254.518V243.667H635.823C639.793 243.667 643.105 240.356 643.105 236.385C643.105 232.415 639.793 229.103 635.823 229.103Z" fill="white"/>
<path d="M795.165 711.795H786.191V702.754C786.191 699.632 783.588 697.029 780.467 697.029C777.344 697.029 774.739 699.632 774.739 702.754V711.795H766.143C763.023 711.795 760.419 714.399 760.419 717.521C760.419 720.641 763.023 723.245 766.143 723.245H774.739V731.776C774.739 734.897 777.344 737.501 780.467 737.501C783.588 737.501 786.191 734.897 786.191 731.776V723.245H795.165C798.287 723.245 800.892 720.641 800.892 717.521C800.892 714.399 798.287 711.795 795.165 711.795Z" fill="white"/>
<path d="M297.624 338.183H288.649V329.142C288.649 326.021 286.045 323.417 282.924 323.417C279.804 323.417 277.2 326.021 277.2 329.142V338.183H268.601C265.481 338.183 262.877 340.787 262.877 343.908C262.877 347.029 265.481 349.633 268.601 349.633H277.2V358.164C277.2 361.284 279.804 363.888 282.924 363.888C286.045 363.888 288.649 361.284 288.649 358.164V349.633H297.624C300.745 349.633 303.349 347.029 303.349 343.908C303.349 340.787 300.745 338.183 297.624 338.183Z" fill="white"/>
<path d="M199 378.827C199.004 378.832 199.008 378.838 199.013 378.842C199.008 378.836 199.004 378.832 199 378.827Z" fill="#43257A"/>
<path d="M199.062 378.905C199.062 378.907 199.063 378.908 199.067 378.908L199.062 378.903V378.905Z" fill="#43257A"/>
<path d="M309.09 365.297C309.341 363.713 309.522 362.073 309.625 360.421L310.746 360.778C313.012 361.302 315.299 361.84 317.57 362.402L315.021 363.213L313.972 363.581C312.349 364.163 310.721 364.745 309.09 365.297ZM502.116 222.077C502.051 222.077 501.982 222.096 501.885 222.142C500.533 222.601 499.19 223.088 497.851 223.595C489.738 225.921 481.92 228.701 474.361 231.389L474.122 231.474C472.658 231.998 471.187 232.523 469.726 233.037C467.204 236.164 464.363 239.372 461.277 242.578C458.903 245.305 456.423 247.931 453.897 250.388C451.577 252.669 449.298 254.753 446.93 256.756C444.374 259.11 441.803 261.303 439.282 263.278L438.765 263.726L438.241 264.171C437.209 265.051 436.17 265.92 435.108 266.766C431.293 270.055 427.357 273.257 423.077 276.555C422 277.427 420.922 278.288 419.843 279.136C416.018 281.752 411.602 284.688 406.343 288.107C404.202 289.493 402.077 290.865 399.936 292.236L398.717 293.02L397.246 293.961C395.976 294.785 394.705 295.601 393.427 296.41C388.595 299.474 383.443 302.482 377.68 305.605C364.939 312.471 350.792 318.894 333.158 325.821C330.77 326.761 328.274 327.723 325.77 328.677C323.138 329.687 320.504 330.71 317.878 331.751L312.702 333.792L310.114 334.823C308.816 335.338 307.537 335.842 306.255 336.341L305.878 336.495C305.752 336.511 305.626 336.56 305.518 336.637L304.583 337.004L303.512 337.42L302.466 337.836C299.755 338.883 297.036 339.922 294.303 340.931C288.952 342.909 284.141 344.549 279.593 345.945C278.92 349.494 278.344 353.374 277.824 357.822C277.546 360.218 277.292 362.621 277.053 365.023C276.945 366.196 276.846 367.365 276.753 368.528C276.621 370.669 276.521 372.803 276.436 374.946C276.428 375.307 276.422 375.618 276.422 375.932C276.391 377.832 276.414 379.737 276.467 381.64C276.436 382.708 276.414 383.787 276.391 384.865C276.422 385.806 276.46 386.752 276.507 387.693C276.507 387.848 276.454 387.982 276.357 388.069C275.975 426.353 281.627 467.14 293.151 509.315C299.212 531.508 306.904 553.616 316.011 575.022C324.788 595.768 335.035 615.853 346.465 634.714C368.935 671.816 396.507 703.551 428.416 729.031C444.481 741.852 461.865 753.071 480.081 762.375C498.281 771.691 517.704 779.069 537.808 784.312C547.878 786.942 558.53 789.059 569.467 790.595C575.877 791.457 582.281 792.114 588.495 792.543C592.145 792.746 595.081 792.845 597.472 792.845C600.792 792.845 604.136 792.699 607.409 792.413C607.472 792.439 607.549 792.459 607.622 792.459L607.942 792.399L608.166 792.328L608.517 792.315L608.896 792.275L609.564 791.95C610.008 791.828 610.448 791.698 610.885 791.558C611.733 791.289 612.559 790.988 613.389 790.674C614.284 790.357 615.162 790.012 616.041 789.641C621.112 787.228 626.298 784.454 631.446 781.398C634.117 779.828 636.657 778.273 639.212 776.638C639.249 776.447 639.218 776.309 639.123 776.179L639.314 776.139C639.454 776.082 639.535 775.891 639.535 775.735L639.734 775.605L639.957 775.443C640.115 775.351 640.196 775.256 640.235 775.116C640.288 774.946 640.279 774.793 640.196 774.657C640.137 774.562 640.095 774.499 640.052 774.458L640.261 774.438L640.513 774.249C640.618 774.168 640.683 774.041 640.696 773.88C640.722 773.714 640.665 773.523 640.555 773.397C640.45 773.308 640.32 773.247 640.16 773.206H640.156C639.953 773.206 639.829 773.286 639.726 773.363L638.78 774.081L637.847 774.787C638.003 774.596 637.944 774.479 637.865 774.383C637.743 774.26 637.593 774.191 637.451 774.191C637.327 774.191 637.193 774.245 637.031 774.357C636.53 774.757 636.022 775.134 635.507 775.512L635.192 775.727C635.123 775.581 635.006 775.538 634.886 775.538L634.651 775.585C634.594 775.501 634.387 775.355 634.168 775.355C633.269 775.593 632.522 775.824 631.783 776.07C631.832 775.952 631.722 775.814 631.548 775.769C631.483 775.769 631.426 775.767 631.377 775.767C631.164 775.767 631.122 775.782 631.085 775.812L630.927 775.883C630.984 775.844 630.99 775.747 630.955 775.644C630.899 775.384 630.659 775.193 630.381 775.193C629.645 775.315 629.036 775.453 628.445 775.607C628.476 775.528 628.403 775.422 628.281 775.357C628.192 775.29 628.072 775.246 627.977 775.246C627.256 775.502 626.692 775.711 626.12 775.932C638.5 762.841 650.018 747.29 660.372 729.743C666.85 718.792 672.813 707.13 678.597 694.097C683.828 682.333 688.631 669.728 692.876 656.634C710.069 603.792 716.689 545.615 712.555 483.715C710.542 453.833 705.962 423.517 698.939 393.609C697.257 386.403 695.366 379.025 693.308 371.683C691.062 363.562 688.919 356.464 686.752 349.985C682.19 336.176 676.537 322.358 669.946 308.918C666.706 302.263 662.944 295.223 658.439 287.389C658.366 287.237 658.284 287.111 658.153 286.956C658.086 286.382 657.82 285.907 657.365 285.552C656.976 285.258 656.474 285.071 656.081 285.071C655.973 285.071 655.858 285.096 655.728 285.157C651.748 286.149 648.439 286.78 645.312 287.141C642.258 287.529 639.456 287.815 636.98 287.997C631.418 288.466 625.594 288.728 619.667 288.773L620.158 289.097L618.531 288.781C598.915 288.781 579.325 286.431 560.301 281.798C558.992 281.482 557.698 281.143 556.397 280.796C537.613 275.776 520.206 268.692 504.659 259.741L504.342 259.595C499.271 256.594 494.466 253.449 490.059 250.246C490.852 249.453 491.719 248.422 492.883 246.931C495.56 243.414 497.755 239.751 499.407 236.046C500.237 234.212 500.949 232.239 501.52 230.182C502.076 228.212 502.475 226.136 502.705 224.009C502.727 223.897 502.686 223.759 502.587 223.626C502.725 223.538 502.832 223.408 502.875 223.281C502.973 223.045 502.993 222.877 502.936 222.721C502.902 222.629 502.845 222.544 502.776 222.483C502.682 222.258 502.514 222.134 502.266 222.108C502.266 222.108 502.118 222.077 502.116 222.077" fill="#03365F"/>
<path d="M493.567 733.688L493.474 733.586C494.085 733.966 494.698 734.335 495.325 734.714C494.817 734.41 494.314 734.112 493.805 733.811C493.805 733.811 493.805 733.805 493.797 733.805C493.774 733.797 493.754 733.781 493.728 733.765L493.72 733.747L493.685 733.74C493.669 733.728 493.644 733.712 493.62 733.704L493.644 733.72L493.567 733.688ZM370.816 602.541L370.716 602.32L371.479 603.73C371.256 603.337 371.039 602.937 370.816 602.541V602.541ZM613.046 737.239C607.906 736.9 602.585 736.354 597.216 735.619C588.089 734.343 579.248 732.584 570.914 730.4C554.228 726.064 538.082 719.93 522.928 712.17C507.776 704.429 493.338 695.103 479.988 684.449C453.463 663.271 430.543 636.9 411.862 606.056C402.457 590.537 393.938 573.84 386.544 556.434C378.981 538.658 372.599 520.282 367.559 501.814C356.893 462.789 352.287 425.304 353.88 390.408C353.896 389.966 354.237 389.521 354.56 389.274C354.712 389.168 354.858 389.091 354.998 389.044C355.299 388.691 355.729 388.444 356.214 388.359C359.256 387.888 362.145 387.34 364.801 386.719L365.035 386.672C373.882 384.629 383.046 381.634 393.066 377.5C397.664 375.597 402.185 373.594 406.893 371.376C411.651 369.128 415.772 367.08 419.492 365.108C426.487 361.372 433.51 357.229 440.374 352.793C455.723 342.826 470.731 331.064 484.974 317.834L484.789 317.826L484.982 317.641C490.077 312.804 494.391 308.338 498.165 303.995C502.719 298.778 506.436 293.809 509.555 288.796C512.069 284.647 513.991 280.736 515.458 276.822C515.493 276.682 515.57 276.558 515.681 276.435C515.704 276.36 515.755 276.276 515.842 276.159C516.104 275.818 516.513 275.582 516.948 275.497C517.033 275.483 517.118 275.483 517.203 275.483C517.619 275.483 518.027 275.629 518.273 275.852C525.489 282.63 533.833 288.821 543.065 294.259L543.327 294.383C556.243 301.82 570.707 307.713 586.336 311.887C587.423 312.171 588.505 312.455 589.591 312.719C605.449 316.586 621.741 318.542 638.007 318.542L639.375 318.711L638.952 318.536C643.93 318.494 648.774 318.281 653.346 317.887C655.598 317.704 657.929 317.465 660.273 317.179C662.899 316.864 665.653 316.331 668.95 315.507C669.068 315.47 669.153 315.454 669.23 315.454C669.569 315.454 669.969 315.6 670.275 315.839C670.64 316.115 670.853 316.517 670.914 317.01C671.022 317.126 671.099 317.233 671.152 317.347C674.788 323.67 677.915 329.526 680.721 335.247C686.202 346.454 690.9 357.937 694.692 369.386C696.579 375.055 698.363 380.958 700.141 387.427C701.839 393.501 703.41 399.633 704.824 405.657C710.67 430.564 714.475 455.764 716.141 480.547C719.574 532.003 714.067 580.36 699.783 624.286C696.255 635.15 692.255 645.635 687.911 655.432C683.091 666.288 678.13 675.976 672.765 685.06C660.843 705.236 647.077 722.326 631.861 735.861C631.676 736.029 631.459 736.145 631.304 736.169C631.25 736.275 631.166 736.374 631.049 736.484C630.757 736.654 630.46 736.807 629.994 737.014C626.976 737.324 623.78 737.486 620.499 737.486C618.265 737.486 615.757 737.401 613.046 737.239V737.239ZM502.431 222.002C501.915 222.079 501.445 222.355 501.14 222.763C501.063 222.864 501.002 222.964 500.945 223.073C500.832 223.211 500.747 223.363 500.682 223.534C498.93 228.252 496.601 232.969 493.584 237.937C489.888 243.903 485.41 249.897 479.883 256.252C475.362 261.457 470.161 266.833 464.018 272.664L463.915 272.748L463.941 272.733C463.84 272.833 463.73 272.934 463.629 273.032L463.949 272.776C447.133 288.559 429.104 302.763 410.326 314.953C402.108 320.283 393.66 325.267 385.211 329.764C380.582 332.229 375.615 334.701 370.053 337.304C364.172 340.076 358.732 342.479 353.426 344.666C341.38 349.65 330.352 353.27 319.699 355.727L319.416 355.788C316.164 356.527 312.637 357.206 309.064 357.76C308.503 357.852 308.002 358.134 307.663 358.552C307.469 358.623 307.288 358.714 307.122 358.83C306.762 359.108 306.369 359.623 306.353 360.124C304.435 402.09 309.958 447.17 322.781 494.102C328.834 516.262 336.514 538.366 345.617 559.807C354.497 580.717 364.74 600.796 376.069 619.495C398.553 656.587 426.117 688.299 458.018 713.765C474.073 726.585 491.451 737.801 509.632 747.105C527.857 756.421 547.278 763.799 567.359 769.032C577.464 771.666 588.097 773.768 598.965 775.278C605.51 776.187 611.91 776.842 617.995 777.226C621.094 777.427 624.111 777.524 626.968 777.524C630.919 777.524 634.762 777.335 638.39 776.954L638.551 776.934C638.916 776.741 639.267 776.546 639.622 776.349C639.722 776.24 639.817 776.122 639.894 776.002C640.14 775.925 640.369 775.787 640.572 775.601C658.871 759.335 675.419 738.787 689.763 714.524C696.238 703.575 702.198 691.915 707.983 678.883C713.176 667.169 717.979 654.568 722.261 641.421C739.436 588.611 746.047 530.446 741.909 468.556C739.905 438.743 735.331 408.437 728.316 378.501C726.674 371.476 724.783 364.098 722.693 356.571C720.485 348.609 718.342 341.509 716.141 334.879C711.579 321.123 705.926 307.305 699.333 293.809C695.94 286.889 692.17 279.848 687.827 272.283C687.758 272.161 687.665 272.037 687.545 271.901C687.46 271.278 687.188 270.814 686.772 270.499C686.44 270.237 685.971 270.065 685.581 270.065C685.47 270.065 685.37 270.083 685.277 270.106C681.342 271.1 678.025 271.739 674.814 272.139C672.053 272.478 669.25 272.764 666.478 272.995C660.918 273.464 655.089 273.724 649.165 273.772L649.697 273.811L648.027 273.78C628.439 273.78 608.841 271.416 589.761 266.749C588.452 266.433 587.143 266.094 585.843 265.747C567.044 260.741 549.63 253.655 534.104 244.69L533.784 244.544L533.8 244.518C522.694 238.022 512.654 230.581 503.936 222.403C503.663 222.14 503.204 221.987 502.711 221.987C502.618 221.987 502.516 221.987 502.431 222.002" fill="#064A83"/>
<path d="M517.203 275.484C517.116 275.484 517.032 275.484 516.953 275.5C516.509 275.577 516.105 275.819 515.843 276.162C515.756 276.273 515.705 276.356 515.677 276.436C515.569 276.559 515.496 276.683 515.45 276.823C513.995 280.731 512.069 284.646 509.553 288.795C506.438 293.809 502.714 298.781 498.167 303.994C494.395 308.34 490.079 312.803 484.981 317.642L484.791 317.827L484.973 317.833C470.732 331.063 455.72 342.825 440.368 352.79C433.509 357.228 426.484 361.373 419.491 365.105C415.772 367.079 411.651 369.129 406.892 371.373C402.184 373.591 397.663 375.594 393.067 377.495C383.049 381.631 373.879 384.634 365.036 386.675L364.805 386.72C362.146 387.339 359.255 387.891 356.211 388.36C355.734 388.445 355.3 388.688 354.998 389.047C354.86 389.086 354.709 389.165 354.563 389.273C354.235 389.52 353.9 389.965 353.886 390.405C352.289 425.305 356.889 462.788 367.556 501.809C372.597 520.279 378.983 538.657 386.541 556.433C393.936 573.843 402.454 590.536 411.859 606.057C430.544 636.896 453.468 663.274 479.992 684.45C493.337 695.102 507.781 704.43 522.923 712.171C538.083 719.929 554.229 726.065 570.919 730.403C579.249 732.583 588.094 734.34 597.214 735.616C602.587 736.353 607.911 736.897 613.041 737.234C615.752 737.398 618.262 737.481 620.501 737.481C623.78 737.481 626.972 737.323 629.997 737.012C630.458 736.808 630.762 736.655 631.052 736.485C631.17 736.379 631.251 736.276 631.306 736.17C631.462 736.148 631.677 736.026 631.856 735.858C647.077 722.323 660.843 705.233 672.764 685.061C678.134 675.977 683.093 666.287 687.914 655.431C692.257 645.632 696.254 635.151 699.785 624.283C714.072 580.363 719.572 532.004 716.134 480.545C714.476 455.761 710.668 430.565 704.828 405.658C703.411 399.634 701.839 393.501 700.146 387.428C698.36 380.957 696.579 375.056 694.692 369.389C690.905 357.938 686.2 346.451 680.723 335.246C677.922 329.525 674.791 323.669 671.155 317.346C671.102 317.236 671.023 317.125 670.914 317.011C670.857 316.516 670.636 316.118 670.274 315.838C669.964 315.603 669.566 315.455 669.227 315.455C669.15 315.455 669.065 315.471 668.953 315.502C665.658 316.329 662.9 316.863 660.271 317.18C657.927 317.466 655.597 317.705 653.345 317.89C648.773 318.28 643.93 318.497 638.952 318.537L639.378 318.714L638.008 318.545C621.74 318.545 605.448 316.583 589.59 312.715C588.504 312.452 587.417 312.168 586.335 311.883C570.71 307.714 556.24 301.825 543.329 294.378L543.065 294.256C533.836 288.822 525.49 282.631 518.272 275.853C518.029 275.624 517.621 275.484 517.203 275.484Z" fill="#C6C1FF"/>
<path d="M502.431 221.958C501.899 222.051 501.414 222.327 501.106 222.737C501.029 222.851 500.97 222.952 500.913 223.06C500.801 223.182 500.714 223.336 500.655 223.522C498.896 228.228 496.57 232.94 493.551 237.924C489.823 243.932 485.341 249.924 479.852 256.223C475.347 261.415 470.153 266.781 463.984 272.635L463.756 272.858L463.602 273.006L463.968 272.813C446.997 288.639 428.948 302.819 410.31 314.925C402.081 320.254 393.628 325.239 385.197 329.736C380.59 332.185 375.629 334.649 370.041 337.275C364.377 339.941 358.941 342.352 353.411 344.639C341.334 349.622 330.305 353.242 319.684 355.698L319.408 355.744C316.072 356.515 312.592 357.177 309.065 357.715C308.479 357.824 307.978 358.11 307.631 358.526C307.432 358.595 307.255 358.695 307.101 358.802C306.722 359.096 306.322 359.61 306.306 360.127C304.39 402.109 309.918 447.186 322.75 494.121C328.799 516.271 336.476 538.383 345.585 559.824C354.475 580.765 364.724 600.844 376.041 619.514C398.52 656.614 426.091 688.336 457.985 713.8C474.046 726.615 491.41 737.828 509.62 747.14C527.842 756.458 547.262 763.836 567.344 769.065C577.448 771.709 588.081 773.81 598.965 775.329C605.483 776.222 611.883 776.874 617.995 777.275C621.183 777.468 624.206 777.576 626.968 777.576C630.903 777.576 634.746 777.385 638.39 777.006C638.597 776.918 638.772 776.837 638.932 776.758L631.944 748.333C631.026 744.595 630.103 740.849 629.184 737.108C626.38 737.359 623.462 737.489 620.501 737.489C618.137 737.489 615.631 737.404 613.046 737.242C608.076 736.919 602.756 736.371 597.216 735.624C588.089 734.354 579.248 732.599 570.914 730.403C554.187 726.051 538.043 719.914 522.928 712.173C507.802 704.44 493.358 695.112 479.988 684.454C453.456 663.268 430.535 636.898 411.858 606.057C402.455 590.539 393.938 573.843 386.544 556.437C378.999 538.724 372.611 520.346 367.559 501.815C358.231 467.705 353.529 434.672 353.572 403.619C353.572 399.297 353.681 394.853 353.88 390.411C353.898 389.979 354.235 389.532 354.558 389.277C354.68 389.185 354.828 389.108 354.982 389.047C355.313 388.678 355.751 388.432 356.214 388.361C359.397 387.868 362.291 387.306 364.819 386.706L365.028 386.675C373.89 384.626 383.054 381.622 393.066 377.503C397.534 375.661 402.055 373.658 406.891 371.379C411.558 369.177 415.679 367.128 419.494 365.109C426.499 361.367 433.524 357.223 440.37 352.794C454.272 343.768 467.896 333.271 480.93 321.587C482.283 320.363 483.641 319.13 484.978 317.89L484.89 317.821C484.866 317.813 484.84 317.798 484.824 317.798L484.84 317.784L484.809 317.768L484.978 317.644C490.016 312.868 494.332 308.403 498.165 303.996C502.723 298.767 506.451 293.801 509.555 288.801C512.069 284.65 513.991 280.737 515.454 276.825C515.478 276.711 515.547 276.602 515.681 276.456C515.7 276.371 515.746 276.281 515.838 276.168C511.392 258.096 506.946 240.02 502.502 221.948C502.477 221.95 502.457 221.954 502.431 221.958Z" fill="#054376"/>
<path d="M515.836 276.163C515.751 276.279 515.7 276.37 515.674 276.455C515.55 276.595 515.481 276.701 515.454 276.825C513.995 280.729 512.062 284.651 509.551 288.793C506.447 293.791 502.731 298.768 498.168 303.996C494.335 308.403 490.019 312.861 484.986 317.644L484.808 317.761L484.986 317.899C470.727 331.077 455.719 342.822 440.368 352.787C433.52 357.223 426.495 361.367 419.488 365.102C415.683 367.121 411.562 369.177 406.887 371.371C402.053 373.651 397.53 375.654 393.07 377.495C383.058 381.622 373.886 384.627 365.029 386.675L364.812 386.705C362.289 387.306 359.39 387.86 356.212 388.361C355.749 388.43 355.317 388.671 354.986 389.047C354.824 389.1 354.686 389.177 354.562 389.27C354.241 389.532 353.899 389.98 353.884 390.402C353.677 394.846 353.576 399.29 353.576 403.62C353.531 434.665 358.235 467.704 367.555 501.807C372.614 520.339 379 538.722 386.54 556.435C393.934 573.841 402.451 590.539 411.856 606.058C430.531 636.89 453.459 663.267 479.992 684.456C493.357 695.105 507.806 704.433 522.924 712.173C538.043 719.912 554.19 726.044 570.918 730.403C579.244 732.592 588.093 734.346 597.212 735.616C602.75 736.373 608.079 736.91 613.042 737.235C615.627 737.397 618.141 737.481 620.503 737.481C623.464 737.481 626.378 737.353 629.186 737.103C605.571 641.054 581.951 545.004 558.329 448.959C544.165 391.364 530.004 333.758 515.838 276.161L515.836 276.163Z" fill="#A1AEFE"/>
<path d="M505.075 382.049C526.597 376.958 548.12 371.869 569.642 366.778C589.879 452.34 610.112 537.899 630.347 623.462C608.825 628.551 587.302 633.642 565.78 638.731C545.545 553.171 525.312 467.61 505.075 382.049Z" fill="#FCFFF4"/>
<path d="M432.515 501.247C437.498 522.797 442.482 544.337 447.466 565.889C530.196 546.759 612.92 527.62 695.647 508.489C694.542 503.595 693.442 498.702 692.342 493.808C688.58 477.13 684.816 460.45 681.054 443.766C598.21 462.924 515.362 482.081 432.515 501.247Z" fill="#FCFFF4"/>
</svg>
