<?xml version="1.0" encoding="UTF-8" standalone="no"?>
<svg
   xmlns:dc="http://purl.org/dc/elements/1.1/"
   xmlns:cc="http://creativecommons.org/ns#"
   xmlns:rdf="http://www.w3.org/1999/02/22-rdf-syntax-ns#"
   xmlns:svg="http://www.w3.org/2000/svg"
   xmlns="http://www.w3.org/2000/svg"
   xmlns:sodipodi="http://sodipodi.sourceforge.net/DTD/sodipodi-0.dtd"
   xmlns:inkscape="http://www.inkscape.org/namespaces/inkscape"
   version="1.1"
   id="svg2"
   xml:space="preserve"
   width="438.56"
   height="94.693336"
   viewBox="0 0 438.56 94.693336"
   sodipodi:docname="17925.eps"><metadata
     id="metadata8"><rdf:RDF><cc:Work
         rdf:about=""><dc:format>image/svg+xml</dc:format><dc:type
           rdf:resource="http://purl.org/dc/dcmitype/StillImage" /></cc:Work></rdf:RDF></metadata><defs
     id="defs6"><clipPath
       clipPathUnits="userSpaceOnUse"
       id="clipPath128"><path
         d="m 3031.49,471.078 c 0,0 80.83,73.973 115.15,62.059 34.32,-11.914 34.35,-55.887 33.7,-59.332 0,0 -19.27,41.058 -82.69,2.57 -28.44,-17.258 -67.32,-25.645 -67.32,-25.645 z"
         id="path126" /></clipPath><linearGradient
       x1="0"
       y1="0"
       x2="1"
       y2="0"
       gradientUnits="userSpaceOnUse"
       gradientTransform="matrix(-100.964,-20.5254,-20.5254,100.964,3169.43,506.582)"
       spreadMethod="pad"
       id="linearGradient140"><stop
         style="stop-opacity:1;stop-color:#f9df1b"
         offset="0"
         id="stop130" /><stop
         style="stop-opacity:1;stop-color:#f6b612"
         offset="0.470588"
         id="stop132" /><stop
         style="stop-opacity:1;stop-color:#f6b612"
         offset="0.470588"
         id="stop134" /><stop
         style="stop-opacity:1;stop-color:#f6a80f"
         offset="0.788235"
         id="stop136" /><stop
         style="stop-opacity:1;stop-color:#f6a80f"
         offset="1"
         id="stop138" /></linearGradient><clipPath
       clipPathUnits="userSpaceOnUse"
       id="clipPath154"><path
         d="m 3030.34,450.699 c 0,0 -42.01,8.403 -70.41,25.645 -43.27,26.273 -66.03,15.488 -76.06,6.019 -4.7,-4.453 -6.64,-8.59 -6.64,-8.59 -0.51,2.633 -0.57,28.465 14.23,46.024 4.82,5.644 11.16,10.473 19.5,13.355 34.3,11.914 115.12,-62.074 115.12,-62.074 z"
         id="path152" /></clipPath><linearGradient
       x1="0"
       y1="0"
       x2="1"
       y2="0"
       gradientUnits="userSpaceOnUse"
       gradientTransform="matrix(163.023,-46.6341,-46.6341,-163.023,2895.99,505.618)"
       spreadMethod="pad"
       id="linearGradient166"><stop
         style="stop-opacity:1;stop-color:#f9df1b"
         offset="0"
         id="stop156" /><stop
         style="stop-opacity:1;stop-color:#f6b612"
         offset="0.470588"
         id="stop158" /><stop
         style="stop-opacity:1;stop-color:#f6b612"
         offset="0.470588"
         id="stop160" /><stop
         style="stop-opacity:1;stop-color:#f6a80f"
         offset="0.788235"
         id="stop162" /><stop
         style="stop-opacity:1;stop-color:#f6a80f"
         offset="1"
         id="stop164" /></linearGradient></defs><sodipodi:namedview
     pagecolor="#ffffff"
     bordercolor="#666666"
     borderopacity="1"
     objecttolerance="10"
     gridtolerance="10"
     guidetolerance="10"
     inkscape:pageopacity="0"
     inkscape:pageshadow="2"
     inkscape:window-width="640"
     inkscape:window-height="480"
     id="namedview4" /><g
     id="g10"
     inkscape:groupmode="layer"
     inkscape:label="ink_ext_XXXXXX"
     transform="matrix(1.3333333,0,0,-1.3333333,0,94.693333)"><g
       id="g12"
       transform="scale(0.1)"><path
         d="m 2263.78,12.0195 -338.57,90.3635 -134.7,76.312 223.51,135.703 241.9,110.957 7.86,-413.3355"
         style="fill:#a7a6a8;fill-opacity:1;fill-rule:nonzero;stroke:none"
         id="path14" /><path
         d="m 3017.99,12.0195 -338.57,90.3635 -134.7,76.312 223.51,135.703 117.26,53.79 14.6,-8.458 0.05,0.032 3.65,-1.707 108.81,-62.825 5.39,-283.2105"
         style="fill:#a7a6a8;fill-opacity:1;fill-rule:nonzero;stroke:none"
         id="path16" /><path
         d="m 1512.19,12.0195 -338.57,90.3635 -134.7,76.312 191.1,116.024 14.87,-8.586 V 166.348 l 108.69,-62.754 v -1.293 l 42.45,-26.9065 v 0.5938 l 3.61,-2.2852 v 3.3008 l 112.55,-64.9844"
         style="fill:#a7a6a8;fill-opacity:1;fill-rule:nonzero;stroke:none"
         id="path18" /><path
         d="m 758.418,12.0195 -338.574,90.3635 -134.699,76.312 191.097,116.024 14.871,-8.59 V 166.348 L 758.418,12.0195"
         style="fill:#a7a6a8;fill-opacity:1;fill-rule:nonzero;stroke:none"
         id="path20" /><path
         d="M 262.895,0 74.8242,50.1953 0,92.5859 124.156,167.965 258.527,229.602 262.895,0"
         style="fill:#a7a6a8;fill-opacity:1;fill-rule:nonzero;stroke:none"
         id="path22" /><path
         d="M 3017.99,12.0195 2746.78,168.605 V 448.707 L 3017.99,292.121 V 12.0195"
         style="fill:#a61c21;fill-opacity:1;fill-rule:nonzero;stroke:none"
         id="path24" /><path
         d="M 2746.78,448.707 V 168.605 l 271.21,-156.5855 -263.34,161.0465 -7.87,275.641"
         style="fill:#7a151e;fill-opacity:1;fill-rule:nonzero;stroke:none"
         id="path26" /><path
         d="m 2860.72,101.906 v 281.016 l 43.07,-24.867 V 74.6055 l -43.07,27.3005"
         style="fill:#7a151e;fill-opacity:1;fill-rule:nonzero;stroke:none"
         id="path28" /><path
         d="M 3017.99,292.121 2746.78,448.707 3017.99,605.289 3289.2,448.707 3017.99,292.121"
         style="fill:#f68281;fill-opacity:1;fill-rule:nonzero;stroke:none"
         id="path30" /><path
         d="M 3273.07,449.773 3017.99,300.695 2746.78,448.707 3017.99,292.121 3289.2,448.707 3017.99,605.289 3273.07,449.773"
         style="fill:#f9a8a7;fill-opacity:1;fill-rule:nonzero;stroke:none"
         id="path32" /><path
         d="m 2867.88,517.723 314.53,-180.645 47.66,27.07 -360.98,154.79 -1.21,-1.215"
         style="fill:#c42224;fill-opacity:1;fill-rule:nonzero;stroke:none"
         id="path34" /><path
         d="m 2912.18,543.805 112.47,-62.871 -44.65,-25.684 -110.88,63.707 43.06,24.848"
         style="fill:#f7f56b;fill-opacity:1;fill-rule:nonzero;stroke:none"
         id="path36" /><path
         d="m 3231.3,365.355 -47.67,-27.027 -158.56,91.07 45.92,25.602 160.31,-89.645"
         style="fill:#f7f56b;fill-opacity:1;fill-rule:nonzero;stroke:none"
         id="path38" /><path
         d="m 2900.13,359.77 280.36,156.242 -0.69,-4.141 -276.01,-153.816 -3.66,1.715"
         style="fill:#c42224;fill-opacity:1;fill-rule:nonzero;stroke:none"
         id="path40" /><path
         d="M 3070.99,455 3025.07,429.398 2980,455.25 3024.65,480.934 3070.99,455"
         style="fill:#f9e01b;fill-opacity:1;fill-rule:nonzero;stroke:none"
         id="path42" /><path
         d="m 2980,455.25 45.07,-25.852 -124.98,-69.668 -43.06,24.93 122.97,70.59"
         style="fill:#f8df1b;fill-opacity:1;fill-rule:nonzero;stroke:none"
         id="path44" /><path
         d="m 3001.45,372.277 c -26.59,0 -34.24,10.227 -35.14,20.621 l 60.35,33.629 22.13,-12.711 c 1.19,-2.246 2.52,-4.398 3.99,-6.336 9.02,-11.82 2.74,-35.203 -51.33,-35.203"
         style="fill:#d64547;fill-opacity:1;fill-rule:nonzero;stroke:none"
         id="path46" /><path
         d="m 3048.79,413.816 -22.13,12.711 1.73,0.969 19.04,-10.937 c 0.43,-0.926 0.89,-1.84 1.36,-2.743"
         style="fill:#a11c21;fill-opacity:1;fill-rule:nonzero;stroke:none"
         id="path48" /><path
         d="m 3047.43,416.559 -19.04,10.937 12.89,7.184 c 1.06,-4.438 3.04,-11.465 6.15,-18.121"
         style="fill:#d08b3a;fill-opacity:1;fill-rule:nonzero;stroke:none"
         id="path50" /><path
         d="m 2917.54,419.391 c -10.95,3.589 -20.33,9.832 -21.12,20.683 -1.42,19.641 25.84,22.328 40.88,22.328 5.66,0 9.59,-0.382 9.59,-0.382 l 7.96,5.75 23.47,-13.481 -60.78,-34.898 m 100.57,6.129 5.23,2.914 v 0 l -5.23,-2.914 m -22.05,38.968 v 0 l 28.59,16.446 -44.65,24.961 v 6.554 l 24.45,3.563 33.78,-42.676 -13.58,7.598 -28.59,-16.446"
         style="fill:#d64547;fill-opacity:1;fill-rule:nonzero;stroke:none"
         id="path52" /><path
         d="m 3023.34,428.434 v 0 l 1.73,0.964 -45.07,25.852 -1.68,-0.961 -23.47,13.481 1.49,1.074 23.66,-13.594 16.06,9.238 -16.06,-9.238 45.07,-25.852 -1.73,-0.964"
         style="fill:#a11c21;fill-opacity:1;fill-rule:nonzero;stroke:none"
         id="path54" /><path
         d="m 2980,455.25 -23.66,13.594 23.66,17.082 v 19.969 l 44.65,-24.961 -28.59,-16.446 -16.06,-9.238"
         style="fill:#d08b3a;fill-opacity:1;fill-rule:nonzero;stroke:none"
         id="path56" /><path
         d="m 3025.07,429.398 v 0 l 15.47,8.625 v -0.003 l -15.47,-8.622"
         style="fill:#d08b3a;fill-opacity:1;fill-rule:nonzero;stroke:none"
         id="path58" /><path
         d="m 3111.29,432.465 -36.93,20.648 34.44,19.196 c 10.26,0.796 20.25,2.175 28.88,4.406 5.69,1.473 10.2,2.121 13.78,2.121 19.8,0 11.04,-19.813 12.56,-30.129 1.57,-10.559 -27.78,-14.301 -52.73,-16.242"
         style="fill:#d64547;fill-opacity:1;fill-rule:nonzero;stroke:none"
         id="path60" /><path
         d="m 3093.33,431.461 c -17.68,0 -37,3.922 -46.71,6.195 l 27.74,15.457 36.93,-20.648 c -3.85,-0.301 -7.58,-0.555 -11.09,-0.785 -2.24,-0.149 -4.54,-0.219 -6.87,-0.219"
         style="fill:#d08b3a;fill-opacity:1;fill-rule:nonzero;stroke:none"
         id="path62" /><path
         d="m 3071,454.992 -0.01,0.008 -32.76,18.336 c 0.05,-0.004 19.9,-1.981 43.85,-1.981 6.19,0 12.65,0.129 19.11,0.461 L 3071,454.992"
         style="fill:#d64547;fill-opacity:1;fill-rule:nonzero;stroke:none"
         id="path64" /><path
         d="m 3041.94,438.801 v 0 l 29.05,16.199 0.01,-0.008 -29.06,-16.191"
         style="fill:#d08b3a;fill-opacity:1;fill-rule:nonzero;stroke:none"
         id="path66" /><path
         d="m 2966.31,392.898 c -0.1,1.243 -0.12,2.489 -0.05,3.715 l 51.85,28.907 5.23,2.914 1.73,0.964 15.47,8.622 c 0.16,-0.793 0.41,-1.934 0.74,-3.34 l -12.89,-7.184 -1.73,-0.969 -60.35,-33.629 m 80.31,44.758 c -2,0.465 -3.59,0.864 -4.68,1.145 l 29.06,16.191 30.19,16.824 c 2.54,0.133 5.09,0.293 7.61,0.493 l -34.44,-19.196 -27.74,-15.457"
         style="fill:#a11c21;fill-opacity:1;fill-rule:nonzero;stroke:none"
         id="path68" /><path
         d="m 3025.07,429.398 -45.07,25.852 16.06,9.238 28.59,16.446 13.58,-7.598 v 0 0 L 3070.99,455 3041.94,438.801 c -1.06,0.273 -1.63,0.429 -1.63,0.429 0,0 0.07,-0.433 0.23,-1.207 l -15.47,-8.625"
         style="fill:#d27a1a;fill-opacity:1;fill-rule:nonzero;stroke:none"
         id="path70" /><path
         d="m 2966.26,396.613 c 0.49,9.418 5.4,17.973 5.4,17.973 l -17.96,0.016 c 0,0 -0.59,-0.016 -1.66,-0.016 -5.11,0 -21,0.383 -34.5,4.805 l 60.78,34.898 1.68,0.961 45.07,-25.852 -1.73,-0.964 -5.23,-2.914 -51.85,-28.907"
         style="fill:#d1791a;fill-opacity:1;fill-rule:nonzero;stroke:none"
         id="path72" /><path
         d="m 3047.23,551.273 c 0,-48.593 -16.2,-82.984 -16.2,-82.984 l -30.51,5.047 1.32,7.59 c 0,0 -22.01,70.16 -6.27,85.019 1.81,1.696 4.14,2.637 7.08,2.7 26.15,0.25 44.58,1.191 44.58,-17.372"
         style="fill:#f7d61e;fill-opacity:1;fill-rule:nonzero;stroke:none"
         id="path74" /><path
         d="m 3003.31,547.598 c 0,0 3.93,-35.528 3.01,-43.106 -0.91,-7.574 0.14,-16.808 0.14,-16.808 l 32.52,5.968 c 0,0 6.14,24.582 6.53,39.918 0.39,15.336 0.39,15.336 0.39,15.336 l -4.06,-27.211 c -0.39,-2.64 -3.79,-3.5 -5.35,-1.332 -1.94,2.703 -4.75,4.977 -8.75,5.032 -4.26,0.054 -8.47,-1.934 -11.89,-4.223 -3.61,-2.414 -8.48,-0.356 -9.05,3.949 -1.01,7.567 -2.4,17.289 -3.49,22.477"
         style="fill:#f6bd18;fill-opacity:1;fill-rule:nonzero;stroke:none"
         id="path76" /><path
         d="m 3003.91,473.336 h -3.39 l 1.32,7.59 c 0,0 -22.01,70.16 -6.27,85.019 2.38,-1.879 4.01,-4.953 4.7,-9.59 5.64,-36.871 4.7,-67.656 3.64,-83.019"
         style="fill:#f7a80f;fill-opacity:1;fill-rule:nonzero;stroke:none"
         id="path78" /><path
         d="m 2993.67,561.168 c 0,0 -5.88,-2.551 0,-38.211 5.88,-35.66 10.78,-46.242 10.78,-46.242 0,0 -2.55,100.324 -10.78,84.453"
         style="fill:#d84f1f;fill-opacity:1;fill-rule:nonzero;stroke:none"
         id="path80" /><path
         d="M 3180.52,516.02 3070.99,455 l -46.34,25.934 108.2,62.113 47.67,-27.027"
         style="fill:#fae944;fill-opacity:1;fill-rule:nonzero;stroke:none"
         id="path82" /><path
         d="m 2857.06,103.617 v 281.02 l 43.07,-24.867 V 76.3203 l -43.07,27.2967"
         style="fill:#f7a80f;fill-opacity:1;fill-rule:nonzero;stroke:none"
         id="path84" /><path
         d="M 3017.99,12.0195 3289.2,168.605 V 448.707 L 3017.99,292.121 V 12.0195"
         style="fill:#dd342f;fill-opacity:1;fill-rule:nonzero;stroke:none"
         id="path86" /><path
         d="M 3017.99,12.0195 3289.2,168.605 v 4.864 L 3017.99,16.8828 v -4.8633"
         style="fill:#b51e24;fill-opacity:1;fill-rule:nonzero;stroke:none"
         id="path88" /><path
         d="m 3185.49,108.871 v 280 l -46.46,-26.824 V 82.0508 l 46.46,26.8202"
         style="fill:#9b1b20;fill-opacity:1;fill-rule:nonzero;stroke:none"
         id="path90" /><path
         d="m 3187.26,107.816 v 282.11 l -46.47,-26.824 V 80.9961 l 46.47,26.8199"
         style="fill:#f7d61e;fill-opacity:1;fill-rule:nonzero;stroke:none"
         id="path92" /><path
         d="m 3150.25,410.672 31.15,-20.746 -43.72,-25.207 3.11,-1.617 46.47,26.824 -37.01,20.746"
         style="fill:#fafab2;fill-opacity:1;fill-rule:nonzero;stroke:none"
         id="path94" /><path
         d="m 3034.07,76.3867 77.25,44.6483 v 64.551 l -75.81,-40.543 -1.44,-4.109 V 76.3867"
         style="fill:#9b1b20;fill-opacity:1;fill-rule:nonzero;stroke:none"
         id="path96" /><path
         d="m 3037.09,143.82 77.25,44.649 -1.58,1.226 -77.25,-44.652 1.58,-1.223"
         style="fill:#ffffff;fill-opacity:1;fill-rule:nonzero;stroke:none"
         id="path98" /><path
         d="M 3037.09,79.2695 V 143.82 l -1.58,1.223 V 80.4961 l 1.58,-1.2266"
         style="fill:#868787;fill-opacity:1;fill-rule:nonzero;stroke:none"
         id="path100" /><path
         d="m 3037.09,79.2695 77.25,44.6525 v 64.547 L 3037.09,143.82 V 79.2695"
         style="fill:#d8d7d5;fill-opacity:1;fill-rule:nonzero;stroke:none"
         id="path102" /><path
         d="m 3041.41,135.027 68.61,39.661 v 4.093 l -68.61,-39.66 v -4.094"
         style="fill:#68696b;fill-opacity:1;fill-rule:nonzero;stroke:none"
         id="path104" /><path
         d="m 3069.8,133.391 40.22,23.175 v 4.09 L 3069.8,137.48 v -4.089"
         style="fill:#898b8b;fill-opacity:1;fill-rule:nonzero;stroke:none"
         id="path106" /><path
         d="m 3041.67,89.9297 20.96,12.1093 v 34.723 l -20.96,-12.11 V 89.9297"
         style="fill:#898b8b;fill-opacity:1;fill-rule:nonzero;stroke:none"
         id="path108" /><path
         d="m 3069.8,124.5 40.22,23.176 v 4.094 L 3069.8,128.594 V 124.5"
         style="fill:#898b8b;fill-opacity:1;fill-rule:nonzero;stroke:none"
         id="path110" /><path
         d="m 3069.8,115.609 40.22,23.176 v 4.09 l -40.22,-23.176 v -4.09"
         style="fill:#898b8b;fill-opacity:1;fill-rule:nonzero;stroke:none"
         id="path112" /><path
         d="m 3069.8,106.719 40.22,23.176 v 4.093 l -40.22,-23.175 v -4.094"
         style="fill:#898b8b;fill-opacity:1;fill-rule:nonzero;stroke:none"
         id="path114" /><path
         d="M 3017.99,292.121 V 12.0195 l 8.92,285.2535 z"
         style="fill:#f25152;fill-opacity:1;fill-rule:nonzero;stroke:none"
         id="path116" /><path
         d="M 3279.18,442.918 3289.2,173.469 V 448.707 Z"
         style="fill:#f25152;fill-opacity:1;fill-rule:nonzero;stroke:none"
         id="path118" /><path
         d="m 3031.49,471.078 c 0,0 38.42,-9.707 73.16,0.277 34.74,9.985 66.18,30.754 66.18,30.754 l 9.51,-28.304 c 0,0 -40.86,-45.504 -150.01,-23.075 l 1.16,20.348"
         style="fill:#d84f1f;fill-opacity:1;fill-rule:nonzero;stroke:none"
         id="path120" /><g
         id="g122"><g
           id="g124"
           clip-path="url(#clipPath128)"><path
             d="m 3031.49,471.078 c 0,0 80.83,73.973 115.15,62.059 34.32,-11.914 34.35,-55.887 33.7,-59.332 0,0 -19.27,41.058 -82.69,2.57 -28.44,-17.258 -67.32,-25.645 -67.32,-25.645 l 1.16,20.348"
             style="fill:url(#linearGradient140);fill-opacity:1;fill-rule:nonzero;stroke:none"
             id="path142" /></g></g><path
         d="m 3116.44,527.613 c 0,0 -27.17,-13.379 -43.63,-25.504 -16.46,-12.125 -23.13,-19.703 -37.32,-25.238 -14.18,-5.531 -9.12,-18.476 -9.12,-18.476 l 5.13,-3.239 c 0,0 16.98,0.637 49.37,18.336 32.4,17.699 47.29,25.688 47.29,25.688 0,0 -28.48,-9.379 -43.63,-18.086 -3.67,-2.114 -11.24,-7.531 -15.36,-5.848 -0.96,0.395 -2.06,0.953 -2.21,1.977 l 0.51,1.867 c 0.44,0.918 0.81,1.867 1.09,2.848 l 0.17,2.597 -1.97,1.406 c 1.79,5.286 -6.21,1.243 -1.95,4.774 3.9,3.234 10.63,8.613 14.85,11.402 9.65,6.383 26.09,20.938 36.78,25.496"
         style="fill:#e69613;fill-opacity:1;fill-rule:nonzero;stroke:none"
         id="path144" /><path
         d="m 3026.08,471.078 c 0,0 -38.42,-9.707 -73.16,0.277 -34.75,9.985 -66.18,30.754 -66.18,30.754 l -9.51,-28.304 c 0,0 43.95,-45.504 153.1,-23.075 l -4.25,20.348"
         style="fill:#d84f1f;fill-opacity:1;fill-rule:nonzero;stroke:none"
         id="path146" /><g
         id="g148"><g
           id="g150"
           clip-path="url(#clipPath154)"><path
             d="m 3030.34,450.699 c 0,0 -42.01,8.403 -70.41,25.645 -43.27,26.273 -66.03,15.488 -76.06,6.019 -4.7,-4.453 -6.64,-8.59 -6.64,-8.59 -0.51,2.633 -0.57,28.465 14.23,46.024 4.82,5.644 11.16,10.473 19.5,13.355 34.3,11.914 115.12,-62.074 115.12,-62.074 l 4.26,-20.379"
             style="fill:url(#linearGradient166);fill-opacity:1;fill-rule:nonzero;stroke:none"
             id="path168" /></g></g><path
         d="m 2959.23,518.938 c 0,0 36.64,-22.934 42.32,-30.969 5.69,-8.035 -4.25,-26.063 -4.25,-26.063 0,0 -19.65,7.645 -23.57,9.407 -3.92,1.765 -26.84,16.066 -26.84,16.066 0,0 34.45,-15.137 36.82,-14.816 2.36,0.32 5.55,14.035 5.55,14.035 l 0.64,7.25 -30.67,25.09"
         style="fill:#f6bd18;fill-opacity:1;fill-rule:nonzero;stroke:none"
         id="path170" /><path
         d="m 3033.95,487.68 c 0,0 6.32,20.523 -11.24,20.101 -17.56,-0.429 -22.06,-0.035 -21.78,-12.871 0.28,-12.832 14.63,-27.332 14.63,-27.332 l 18.39,20.102"
         style="fill:#f5de2f;fill-opacity:1;fill-rule:nonzero;stroke:none"
         id="path172" /><path
         d="m 3023.6,497.445 c 0,0 13.77,16.453 22.9,1.676 9.13,-14.777 11.89,-18.289 0.99,-25.07 -10.9,-6.778 -30.8,-2.821 -30.8,-2.821 l 6.91,26.215"
         style="fill:#f9bd09;fill-opacity:1;fill-rule:nonzero;stroke:none"
         id="path174" /><path
         d="m 3009.79,494.273 c 0,0 -13.77,16.454 -22.9,1.676 -9.13,-14.777 -11.89,-18.289 -0.99,-25.07 10.9,-6.777 30.79,-2.82 30.79,-2.82 l -6.9,26.214"
         style="fill:#f9bd09;fill-opacity:1;fill-rule:nonzero;stroke:none"
         id="path176" /><path
         d="m 3037.46,480.934 c 6.04,-3.774 7.28,-23.118 -17.2,-22.688 -24.47,0.426 -33.66,0.461 -30.35,12.867 4.51,16.887 28.08,9.821 28.08,9.821 0,0 15.76,2.324 19.47,0"
         style="fill:#f7a80f;fill-opacity:1;fill-rule:nonzero;stroke:none"
         id="path178" /><path
         d="m 3001.95,470.082 c 0,0 -9.26,2.902 -18.92,-18.512 -15.67,-34.699 -3.4,-61.855 5.48,-64.683 15.94,-5.071 52.52,-7.422 57.74,11.386 5.23,18.813 -12.07,71.809 -12.07,71.809 l -13.43,-1.793 -18.8,1.793"
         style="fill:#f5de2f;fill-opacity:1;fill-rule:nonzero;stroke:none"
         id="path180" /><path
         d="m 3001.95,470.082 c 0,0 -9.26,2.902 -18.92,-18.512 -15.67,-34.699 -3.4,-61.855 5.48,-64.683 15.94,-5.071 52.52,-7.422 57.74,11.386 5.23,18.813 -12.07,71.809 -12.07,71.809 l -13.43,-1.793 -18.8,1.793"
         style="fill:#f5de2f;fill-opacity:1;fill-rule:nonzero;stroke:none"
         id="path182" /><path
         d="m 3034.18,470.082 -1.86,-0.59 c 3.41,-11.699 13.24,-45.054 9.44,-58.762 -4.58,-16.472 -36.62,-14.414 -50.58,-9.972 -13.95,4.441 -20.06,22.863 -4.8,56.656 0.46,1.027 0.93,1.981 1.4,2.899 -1.59,-2.442 -3.2,-5.293 -4.75,-8.743 -15.67,-34.699 -3.4,-61.855 5.48,-64.683 15.94,-5.071 52.52,-7.422 57.74,11.386 5.23,18.813 -12.07,71.809 -12.07,71.809"
         style="fill:#f7a80f;fill-opacity:1;fill-rule:nonzero;stroke:none"
         id="path184" /><path
         d="m 2988.51,419.281 c -5.73,1.824 -6.97,6.367 -9.66,12.399 -6.86,-25.633 -3.17,-40.707 9.66,-44.793 15.94,-5.071 52.52,-7.422 57.74,11.386 1.84,6.637 0.86,17.856 -1.15,29.579 -7.98,-15.704 -41.51,-13.368 -56.59,-8.571"
         style="fill:#fbcf25;fill-opacity:1;fill-rule:nonzero;stroke:none"
         id="path186" /><path
         d="m 3046.88,414.324 c -0.15,-1.215 -0.35,-2.367 -0.63,-3.383 -5.22,-18.808 -41.8,-16.457 -57.74,-11.386 -7.99,2.543 -10.4,9.73 -11.93,20.508 -2.14,-18.43 1.18,-29.754 11.93,-33.176 15.94,-5.071 52.52,-7.422 57.74,11.386 1.11,3.985 1.17,9.657 0.63,16.051"
         style="fill:#f7a80f;fill-opacity:1;fill-rule:nonzero;stroke:none"
         id="path188" /><path
         d="m 3173.76,483.684 c 0,0 -6.52,9.968 -21.38,11.41 0.07,3.886 0.07,8.215 -0.18,10.785 -0.38,4.141 1.25,14.922 -2.45,24.391 2.7,-1.067 5.52,-2.633 8.09,-4.891 11.66,-10.094 15.36,-16.488 15.92,-22.07 0.5,-5.645 0,-19.625 0,-19.625"
         style="fill:#f7e446;fill-opacity:1;fill-rule:nonzero;stroke:none"
         id="path190" /><path
         d="m 2896.37,523.043 c 0,0 7.15,9.535 22.3,10.48 10.85,0.68 22.38,-6.3 22.38,-6.3 0,0 -9.58,-5.325 -10.62,-7.43 -1.05,-2.105 0.78,-9.16 0.78,-9.16 0,0 -0.52,-10.977 -1.57,-11.106 -1.04,-0.129 10.68,-10.285 10.68,-10.285 0,0 -18.12,9.602 -32.1,6.762 -9.31,-1.895 -17.5,-5.75 -17.5,-5.75 0,0 4.77,13.062 5.65,18.812 0.88,5.747 0,13.977 0,13.977"
         style="fill:#f7e446;fill-opacity:1;fill-rule:nonzero;stroke:none"
         id="path192" /><path
         d="m 2891.46,519.797 c -1.38,-5.453 -3.14,-13.231 -3.07,-18.809 0.06,-6.961 -3.39,-13.734 -4.52,-18.625 -4.7,-4.453 -6.64,-8.59 -6.64,-8.59 -0.51,2.633 -0.57,28.465 14.23,46.024"
         style="fill:#f7a80f;fill-opacity:1;fill-rule:nonzero;stroke:none"
         id="path194" /><path
         d="m 1244.85,440.059 267.34,154.347 -367.08,-171.957 2.71,-4.597 97.03,22.207"
         style="fill:#983d1d;fill-opacity:1;fill-rule:nonzero;stroke:none"
         id="path196" /><path
         d="m 1779.53,439.094 -267.34,154.351 367.08,-170.996 v -6.183 l -99.74,22.828"
         style="fill:#d5aa55;fill-opacity:1;fill-rule:nonzero;stroke:none"
         id="path198" /><path
         d="m 1512.19,12.0195 -267.3,154.3285 v 278.929 l 267.3,-154.328 V 12.0195"
         style="fill:#b56234;fill-opacity:1;fill-rule:nonzero;stroke:none"
         id="path200" /><path
         d="M 1244.89,445.277 V 166.348 l 267.3,-154.3285 -259.55,158.7265 -7.75,274.531"
         style="fill:#a14c1e;fill-opacity:1;fill-rule:nonzero;stroke:none"
         id="path202" /><path
         d="m 1357.18,100.613 v 279.828 l 42.46,-24.511 V 73.7031 l -42.46,26.9099"
         style="fill:#983d1d;fill-opacity:1;fill-rule:nonzero;stroke:none"
         id="path204" /><path
         d="m 1353.58,102.301 v 279.828 l 42.45,-24.508 V 75.3945 l -42.45,26.9065"
         style="fill:#b19eab;fill-opacity:1;fill-rule:nonzero;stroke:none"
         id="path206" /><path
         d="M 1512.19,12.0195 1779.5,166.348 V 445.277 L 1512.19,290.949 V 12.0195"
         style="fill:#d5aa55;fill-opacity:1;fill-rule:nonzero;stroke:none"
         id="path208" /><path
         d="M 1512.19,12.0195 1779.5,166.348 v 4.793 L 1512.19,16.8125 v -4.793"
         style="fill:#b08238;fill-opacity:1;fill-rule:nonzero;stroke:none"
         id="path210" /><path
         d="m 1528.04,65.1797 76.14,44.0083 v 63.617 l -74.72,-39.957 -1.42,-4.051 V 65.1797"
         style="fill:#983d1d;fill-opacity:1;fill-rule:nonzero;stroke:none"
         id="path212" /><path
         d="m 1677.28,107.477 v 278.828 l -45.79,-26.442 V 81.043 l 45.79,26.434"
         style="fill:#983d1d;fill-opacity:1;fill-rule:nonzero;stroke:none"
         id="path214" /><path
         d="m 1679.02,106.438 v 280.906 l -45.79,-26.438 V 80.0039 l 45.79,26.4341"
         style="fill:#d8d7d5;fill-opacity:1;fill-rule:nonzero;stroke:none"
         id="path216" /><path
         d="m 1268.96,329.121 50.66,-29.285 v 78.207 l -50.66,29.285 z m 56.37,-39.172 -62.08,35.879 v 91.387 l 62.08,-35.879 v -91.387"
         style="fill:#88381c;fill-opacity:1;fill-rule:nonzero;stroke:none"
         id="path218" /><path
         d="m 1282.47,334.508 21.11,-12.188 v 25.047 l -21.11,12.188 v -25.047"
         style="fill:#88381c;fill-opacity:1;fill-rule:nonzero;stroke:none"
         id="path220" /><path
         d="m 1272.17,365.301 41.7,-24.074 -20.85,43.617 z"
         style="fill:#88381c;fill-opacity:1;fill-rule:nonzero;stroke:none"
         id="path222" /><path
         d="m 1531.01,131.641 76.14,44.007 -1.55,1.207 -76.14,-44.007 1.55,-1.207"
         style="fill:#ffffff;fill-opacity:1;fill-rule:nonzero;stroke:none"
         id="path224" /><path
         d="m 1531.01,68.0234 v 63.6176 l -1.55,1.207 V 69.2305 l 1.55,-1.2071"
         style="fill:#868787;fill-opacity:1;fill-rule:nonzero;stroke:none"
         id="path226" /><path
         d="m 1531.01,68.0234 76.14,44.0076 v 63.617 l -76.14,-44.007 V 68.0234"
         style="fill:#d8d7d5;fill-opacity:1;fill-rule:nonzero;stroke:none"
         id="path228" /><path
         d="m 1535.27,122.98 67.62,39.086 v 4.036 l -67.62,-39.086 v -4.036"
         style="fill:#68696b;fill-opacity:1;fill-rule:nonzero;stroke:none"
         id="path230" /><path
         d="m 1563.25,121.363 39.64,22.84 v 4.035 l -39.64,-22.84 v -4.035"
         style="fill:#898b8b;fill-opacity:1;fill-rule:nonzero;stroke:none"
         id="path232" /><path
         d="m 1535.53,78.5313 20.66,11.9335 V 124.684 L 1535.53,112.75 V 78.5313"
         style="fill:#898b8b;fill-opacity:1;fill-rule:nonzero;stroke:none"
         id="path234" /><path
         d="m 1563.25,112.602 39.64,22.839 v 4.036 l -39.64,-22.84 v -4.035"
         style="fill:#898b8b;fill-opacity:1;fill-rule:nonzero;stroke:none"
         id="path236" /><path
         d="m 1563.25,103.84 39.64,22.84 v 4.035 l -39.64,-22.844 v -4.031"
         style="fill:#898b8b;fill-opacity:1;fill-rule:nonzero;stroke:none"
         id="path238" /><path
         d="m 1563.25,95.0742 39.64,22.8438 v 4.031 l -39.64,-22.8396 v -4.0352"
         style="fill:#898b8b;fill-opacity:1;fill-rule:nonzero;stroke:none"
         id="path240" /><path
         d="m 1244.85,445.277 267.34,154.348 -99.73,-22.824 -267.35,-154.352 99.74,22.828"
         style="fill:#d5aa55;fill-opacity:1;fill-rule:nonzero;stroke:none"
         id="path242" /><path
         d="m 1779.53,445.277 -267.34,154.348 99.74,-22.824 267.34,-154.352 -99.74,22.828"
         style="fill:#e5c16c;fill-opacity:1;fill-rule:nonzero;stroke:none"
         id="path244" /><path
         d="M 1512.19,290.926 1244.85,445.277 1512.19,599.625 1779.53,445.277 1512.19,290.926"
         style="fill:#edda80;fill-opacity:1;fill-rule:nonzero;stroke:none"
         id="path246" /><path
         d="M 1756.7,445.285 1530.65,314.77 1512.17,304.078 1493.69,314.77 1267.64,445.285 1512.17,586.434 1756.7,445.285"
         style="fill:#9b4b31;fill-opacity:1;fill-rule:nonzero;stroke:none"
         id="path248" /><path
         d="m 1449.85,167.797 -267.34,154.348 -2.42,5.293 332.1,-36.489 v -8.91 l -62.34,-114.242"
         style="fill:#d5aa55;fill-opacity:1;fill-rule:nonzero;stroke:none"
         id="path250" /><path
         d="m 1447.43,173.09 -267.34,154.348 64.76,117.839 267.34,-154.351 -64.76,-117.836"
         style="fill:#e2b759;fill-opacity:1;fill-rule:nonzero;stroke:none"
         id="path252" /><path
         d="m 1779.5,276.289 v 13.738 l 0.02,0.012 0.01,-13.726 -0.03,-0.024"
         style="fill:#d58d7b;fill-opacity:1;fill-rule:nonzero;stroke:none"
         id="path254" /><path
         d="m 1563.25,154.25 -51.06,94.445 v 33.344 l 4.63,0.469 60.13,-109.418 54.54,31.488 v -11.816 l -68.24,-38.512 m 115.77,65.336 v 12.43 l 100.48,58.011 v -13.738 l -100.48,-56.703"
         style="fill:#b45c2c;fill-opacity:1;fill-rule:nonzero;stroke:none"
         id="path256" /><path
         d="m 1631.49,192.762 v 11.816 l 1.74,1 v -11.836 l -1.74,-0.98"
         style="fill:#7f251a;fill-opacity:1;fill-rule:nonzero;stroke:none"
         id="path258" /><path
         d="m 1633.23,193.742 v 11.836 l 45.79,26.438 v -12.43 l -45.79,-25.844"
         style="fill:#b17567;fill-opacity:1;fill-rule:nonzero;stroke:none"
         id="path260" /><path
         d="m 1573.98,169.953 267.34,154.352 2.97,3.133 -332.1,-36.489 v -8.91 l 61.79,-112.086"
         style="fill:#b56234;fill-opacity:1;fill-rule:nonzero;stroke:none"
         id="path262" /><path
         d="m 1576.95,173.09 267.34,154.348 -64.76,117.839 -267.34,-154.351 64.76,-117.836"
         style="fill:#fae77f;fill-opacity:1;fill-rule:nonzero;stroke:none"
         id="path264" /><path
         d="m 1447.43,173.09 -267.34,154.348 2.42,-5.293 267.34,-154.348 -2.42,5.293"
         style="fill:#983d1d;fill-opacity:1;fill-rule:nonzero;stroke:none"
         id="path266" /><path
         d="M 1512.19,586.457 V 304.098 l -244.53,141.179 244.53,141.18"
         style="fill:#ce9853;fill-opacity:1;fill-rule:nonzero;stroke:none"
         id="path268" /><path
         d="m 1338.89,486.402 v 0.016 l 13.92,8.031 v -0.008 l -13.92,-8.039"
         style="fill:#6c2e23;fill-opacity:1;fill-rule:nonzero;stroke:none"
         id="path270" /><path
         d="m 1420.34,357.129 -81.45,47.023 v 82.25 l 13.92,8.039 v -81.597 l 82.41,-47.578 -14.88,-8.137"
         style="fill:#8f5839;fill-opacity:1;fill-rule:nonzero;stroke:none"
         id="path272" /><path
         d="m 1530.65,314.77 -18.48,-10.692 -18.48,10.692 18.48,10.628 18.48,-10.628"
         style="fill:#b56234;fill-opacity:1;fill-rule:nonzero;stroke:none"
         id="path274" /><path
         d="m 1512.17,304.078 -67.41,38.942 48.93,-28.25 18.48,-10.692 18.48,10.692 226.05,130.515 -244.53,-141.207"
         style="fill:#a68153;fill-opacity:1;fill-rule:nonzero;stroke:none"
         id="path276" /><path
         d="m 1530.65,314.77 -18.46,10.617 v 81.941 L 1756.7,445.285 1530.65,314.77 m -36.96,0 v 0 l -48.93,28.25 -24.04,13.886 72.98,-42.133 -0.01,-0.003"
         style="fill:#6c2e23;fill-opacity:1;fill-rule:nonzero;stroke:none"
         id="path278" /><path
         d="m 1493.7,314.773 -72.98,42.133 -0.38,0.223 14.89,8.137 72.98,-42.141 -14.51,-8.352"
         style="fill:#8f5839;fill-opacity:1;fill-rule:nonzero;stroke:none"
         id="path280" /><path
         d="m 1512.17,304.078 -18.48,10.692 0.01,0.003 14.51,8.352 3.98,-2.297 v 4.559 l 18.46,-10.617 -18.48,-10.692"
         style="fill:#7e3a25;fill-opacity:1;fill-rule:nonzero;stroke:none"
         id="path282" /><path
         d="m 1512.19,320.828 -159.38,92.016 V 618.176 L 1512.19,526.16 V 320.828"
         style="fill:#c2c0be;fill-opacity:1;fill-rule:nonzero;stroke:none"
         id="path284" /><path
         d="m 1512.19,526.16 -159.38,92.016 159.38,92.015 159.38,-92.015 -159.38,-92.016"
         style="fill:#fcfcfd;fill-opacity:1;fill-rule:nonzero;stroke:none"
         id="path286" /><path
         d="m 1512.19,320.828 159.38,92.016 V 618.176 L 1512.19,526.16 V 320.828"
         style="fill:#e7e6e5;fill-opacity:1;fill-rule:nonzero;stroke:none"
         id="path288" /><path
         d="m 1244.85,480.031 89.03,51.407 -89.03,-51.407 v 0"
         style="fill:#b297a2;fill-opacity:1;fill-rule:nonzero;stroke:none"
         id="path290" /><path
         d="m 1244.85,480.031 89.03,51.407 18.93,10.925 v -34.754 l -24.16,-13.949 -83.8,-13.629"
         style="fill:#95643a;fill-opacity:1;fill-rule:nonzero;stroke:none"
         id="path292" /><path
         d="m 1338.89,486.418 -10.24,7.242 24.16,13.949 v -13.16 l -13.92,-8.031"
         style="fill:#a68153;fill-opacity:1;fill-rule:nonzero;stroke:none"
         id="path294" /><path
         d="m 1338.89,486.418 v 0 l 13.92,8.031 v 0 l -13.92,-8.031"
         style="fill:#6c2e23;fill-opacity:1;fill-rule:nonzero;stroke:none"
         id="path296" /><path
         d="m 1338.89,486.418 v 0 l 13.92,8.031 v 0 l -13.92,-8.031"
         style="fill:#491e1a;fill-opacity:1;fill-rule:nonzero;stroke:none"
         id="path298" /><path
         d="m 1352.81,494.449 v 0 0 47.914 -47.914"
         style="fill:#84717a;fill-opacity:1;fill-rule:nonzero;stroke:none"
         id="path300" /><path
         d="M 491.074,440.059 758.418,594.406 391.34,422.449 l 2.711,-4.597 97.023,22.207"
         style="fill:#983d1d;fill-opacity:1;fill-rule:nonzero;stroke:none"
         id="path302" /><path
         d="M 1025.76,439.094 758.418,593.445 1125.49,422.449 v -6.183 l -99.73,22.828"
         style="fill:#d5aa55;fill-opacity:1;fill-rule:nonzero;stroke:none"
         id="path304" /><path
         d="M 758.418,12.0195 491.113,166.348 V 445.277 L 758.418,290.949 V 12.0195"
         style="fill:#b56234;fill-opacity:1;fill-rule:nonzero;stroke:none"
         id="path306" /><path
         d="M 491.113,445.277 V 166.348 L 758.418,12.0195 498.871,170.746 491.113,445.277"
         style="fill:#a14c1e;fill-opacity:1;fill-rule:nonzero;stroke:none"
         id="path308" /><path
         d="M 603.41,100.613 V 380.441 L 645.863,355.93 V 73.7031 L 603.41,100.613"
         style="fill:#983d1d;fill-opacity:1;fill-rule:nonzero;stroke:none"
         id="path310" /><path
         d="m 599.805,102.301 v 279.828 l 42.453,-24.508 V 75.3945 l -42.453,26.9065"
         style="fill:#b19eab;fill-opacity:1;fill-rule:nonzero;stroke:none"
         id="path312" /><path
         d="M 758.418,12.0195 1025.72,166.348 V 445.277 L 758.418,290.949 V 12.0195"
         style="fill:#d5aa55;fill-opacity:1;fill-rule:nonzero;stroke:none"
         id="path314" /><path
         d="M 758.418,12.0195 1025.72,166.348 v 4.793 L 758.418,16.8125 v -4.793"
         style="fill:#b08238;fill-opacity:1;fill-rule:nonzero;stroke:none"
         id="path316" /><path
         d="m 774.266,65.1797 76.136,44.0083 v 63.617 l -74.714,-39.957 -1.422,-4.051 V 65.1797"
         style="fill:#983d1d;fill-opacity:1;fill-rule:nonzero;stroke:none"
         id="path318" /><path
         d="M 923.508,107.477 V 386.305 L 877.719,359.863 V 81.043 l 45.789,26.434"
         style="fill:#983d1d;fill-opacity:1;fill-rule:nonzero;stroke:none"
         id="path320" /><path
         d="M 925.242,106.438 V 387.344 L 879.453,360.906 V 80.0039 l 45.789,26.4341"
         style="fill:#d8d7d5;fill-opacity:1;fill-rule:nonzero;stroke:none"
         id="path322" /><path
         d="m 515.184,329.121 50.664,-29.285 v 78.207 l -50.664,29.285 z m 56.367,-39.172 -62.071,35.879 v 91.387 l 62.071,-35.879 v -91.387"
         style="fill:#88381c;fill-opacity:1;fill-rule:nonzero;stroke:none"
         id="path324" /><path
         d="m 528.695,334.508 21.11,-12.188 v 25.047 l -21.11,12.188 v -25.047"
         style="fill:#88381c;fill-opacity:1;fill-rule:nonzero;stroke:none"
         id="path326" /><path
         d="m 518.398,365.301 41.704,-24.074 -20.852,43.617 z"
         style="fill:#88381c;fill-opacity:1;fill-rule:nonzero;stroke:none"
         id="path328" /><path
         d="m 777.238,131.641 76.137,44.007 -1.551,1.207 -76.136,-44.007 1.55,-1.207"
         style="fill:#ffffff;fill-opacity:1;fill-rule:nonzero;stroke:none"
         id="path330" /><path
         d="m 777.238,68.0234 v 63.6176 l -1.55,1.207 V 69.2305 l 1.55,-1.2071"
         style="fill:#868787;fill-opacity:1;fill-rule:nonzero;stroke:none"
         id="path332" /><path
         d="m 777.238,68.0234 76.137,44.0076 v 63.617 L 777.238,131.641 V 68.0234"
         style="fill:#d8d7d5;fill-opacity:1;fill-rule:nonzero;stroke:none"
         id="path334" /><path
         d="m 781.496,122.98 67.621,39.086 v 4.036 l -67.621,-39.086 v -4.036"
         style="fill:#68696b;fill-opacity:1;fill-rule:nonzero;stroke:none"
         id="path336" /><path
         d="m 809.477,121.363 39.64,22.84 v 4.035 l -39.64,-22.84 v -4.035"
         style="fill:#898b8b;fill-opacity:1;fill-rule:nonzero;stroke:none"
         id="path338" /><path
         d="m 781.758,78.5313 20.66,11.9335 V 124.684 L 781.758,112.75 V 78.5313"
         style="fill:#898b8b;fill-opacity:1;fill-rule:nonzero;stroke:none"
         id="path340" /><path
         d="m 809.477,112.602 39.64,22.839 v 4.036 l -39.64,-22.84 v -4.035"
         style="fill:#898b8b;fill-opacity:1;fill-rule:nonzero;stroke:none"
         id="path342" /><path
         d="m 809.477,103.84 39.64,22.84 v 4.035 l -39.64,-22.844 v -4.031"
         style="fill:#898b8b;fill-opacity:1;fill-rule:nonzero;stroke:none"
         id="path344" /><path
         d="m 809.477,95.0742 39.64,22.8438 v 4.031 l -39.64,-22.8396 v -4.0352"
         style="fill:#898b8b;fill-opacity:1;fill-rule:nonzero;stroke:none"
         id="path346" /><path
         d="M 491.074,445.277 758.418,599.625 658.684,576.801 391.34,422.449 l 99.734,22.828"
         style="fill:#d5aa55;fill-opacity:1;fill-rule:nonzero;stroke:none"
         id="path348" /><path
         d="m 1025.76,445.277 -267.342,154.348 99.734,-22.824 267.338,-154.352 -99.73,22.828"
         style="fill:#e5c16c;fill-opacity:1;fill-rule:nonzero;stroke:none"
         id="path350" /><path
         d="M 758.418,290.926 491.074,445.277 758.418,599.625 1025.76,445.277 758.418,290.926"
         style="fill:#edda80;fill-opacity:1;fill-rule:nonzero;stroke:none"
         id="path352" /><path
         d="M 1002.93,445.285 776.875,314.77 758.398,304.078 739.922,314.77 513.863,445.285 758.398,586.434 1002.93,445.285"
         style="fill:#9b4b31;fill-opacity:1;fill-rule:nonzero;stroke:none"
         id="path354" /><path
         d="m 696.078,167.797 -267.344,154.348 -2.418,5.293 332.102,-36.489 v -8.91 l -62.34,-114.242"
         style="fill:#d5aa55;fill-opacity:1;fill-rule:nonzero;stroke:none"
         id="path356" /><path
         d="M 693.656,173.09 426.316,327.438 491.074,445.277 758.418,290.926 693.656,173.09"
         style="fill:#e2b759;fill-opacity:1;fill-rule:nonzero;stroke:none"
         id="path358" /><path
         d="m 1025.72,276.289 v 13.738 l 0.02,0.012 0.02,-13.726 -0.04,-0.024"
         style="fill:#d58d7b;fill-opacity:1;fill-rule:nonzero;stroke:none"
         id="path360" /><path
         d="m 809.477,154.25 -51.059,94.445 v 33.344 l 4.625,0.469 60.137,-109.418 54.539,31.488 V 192.762 L 809.477,154.25 m 115.765,65.336 v 12.43 l 100.478,58.011 V 276.289 L 925.242,219.586"
         style="fill:#b45c2c;fill-opacity:1;fill-rule:nonzero;stroke:none"
         id="path362" /><path
         d="m 877.719,192.762 v 11.816 l 1.734,1 v -11.836 l -1.734,-0.98"
         style="fill:#7f251a;fill-opacity:1;fill-rule:nonzero;stroke:none"
         id="path364" /><path
         d="m 879.453,193.742 v 11.836 l 45.789,26.438 v -12.43 l -45.789,-25.844"
         style="fill:#b17567;fill-opacity:1;fill-rule:nonzero;stroke:none"
         id="path366" /><path
         d="m 820.207,169.953 267.343,154.352 2.97,3.133 -332.102,-36.489 v -8.91 l 61.789,-112.086"
         style="fill:#b56234;fill-opacity:1;fill-rule:nonzero;stroke:none"
         id="path368" /><path
         d="M 823.18,173.09 1090.52,327.438 1025.76,445.277 758.418,290.926 823.18,173.09"
         style="fill:#fae77f;fill-opacity:1;fill-rule:nonzero;stroke:none"
         id="path370" /><path
         d="m 693.656,173.09 -267.34,154.348 2.418,-5.293 267.344,-154.348 -2.422,5.293"
         style="fill:#983d1d;fill-opacity:1;fill-rule:nonzero;stroke:none"
         id="path372" /><path
         d="M 758.418,586.457 V 304.098 l -244.531,141.179 244.531,141.18"
         style="fill:#ce9853;fill-opacity:1;fill-rule:nonzero;stroke:none"
         id="path374" /><path
         d="m 776.875,314.77 -18.477,-10.692 -18.476,10.692 18.476,10.628 18.477,-10.628"
         style="fill:#b56234;fill-opacity:1;fill-rule:nonzero;stroke:none"
         id="path376" /><path
         d="m 758.398,304.078 -67.41,38.942 48.934,-28.25 18.476,-10.692 18.477,10.692 226.055,130.515 -244.532,-141.207"
         style="fill:#a68153;fill-opacity:1;fill-rule:nonzero;stroke:none"
         id="path378" /><path
         d="m 776.875,314.77 -18.457,10.621 v 81.937 L 1002.93,445.285 776.875,314.77 m -36.953,0 v 0 l -48.934,28.25 -23.148,13.375 72.086,-41.622 -0.004,-0.003"
         style="fill:#6c2e23;fill-opacity:1;fill-rule:nonzero;stroke:none"
         id="path380" /><path
         d="m 739.926,314.773 -72.086,41.622 -1.274,0.734 91.852,50.199 v -81.937 l -0.02,0.007 -18.472,-10.625"
         style="fill:#8f5839;fill-opacity:1;fill-rule:nonzero;stroke:none"
         id="path382" /><path
         d="m 758.398,304.078 -18.476,10.692 0.004,0.003 18.472,10.625 0.02,-0.007 18.457,-10.621 -18.477,-10.692"
         style="fill:#7e3a25;fill-opacity:1;fill-rule:nonzero;stroke:none"
         id="path384" /><path
         d="M 2263.78,12.0195 1995.94,166.656 V 446.145 L 2263.78,291.508 V 12.0195"
         style="fill:#b56234;fill-opacity:1;fill-rule:nonzero;stroke:none"
         id="path386" /><path
         d="M 1995.94,446.145 V 166.656 l 267.84,-154.6365 -260.07,159.0435 -7.77,275.082"
         style="fill:#88381c;fill-opacity:1;fill-rule:nonzero;stroke:none"
         id="path388" /><path
         d="M 2108.46,100.789 V 381.18 L 2151,356.621 V 73.8281 l -42.54,26.9609"
         style="fill:#983d1d;fill-opacity:1;fill-rule:nonzero;stroke:none"
         id="path390" /><path
         d="M 2263.78,291.508 1995.94,446.145 2263.78,600.781 2531.62,446.145 2263.78,291.508"
         style="fill:#edda80;fill-opacity:1;fill-rule:nonzero;stroke:none"
         id="path392" /><path
         d="m 2511.88,446.145 -247.33,-142.301 -268.61,142.301 267.84,-154.637 267.84,154.637 -267.84,154.636 248.1,-154.636"
         style="fill:#fdefa4;fill-opacity:1;fill-rule:nonzero;stroke:none"
         id="path394" /><path
         d="m 2115.53,514.305 310.62,-178.403 47.07,26.739 -356.49,152.859 -1.2,-1.195"
         style="fill:#a76d41;fill-opacity:1;fill-rule:nonzero;stroke:none"
         id="path396" /><path
         d="m 2159.29,540.059 111.07,-62.086 -44.1,-25.368 -109.5,62.918 42.53,24.536"
         style="fill:#e8e2e6;fill-opacity:1;fill-rule:nonzero;stroke:none"
         id="path398" /><path
         d="m 2474.44,363.832 -47.08,-26.691 -156.58,89.937 45.34,25.281 158.32,-88.527"
         style="fill:#e8e2e6;fill-opacity:1;fill-rule:nonzero;stroke:none"
         id="path400" /><path
         d="m 2147.39,358.313 276.87,154.296 -0.69,-4.086 -272.57,-151.902 -3.61,1.692"
         style="fill:#c08944;fill-opacity:1;fill-rule:nonzero;stroke:none"
         id="path402" /><path
         d="m 2316.12,452.359 -45.34,-25.281 -44.52,25.527 44.1,25.368 45.76,-25.614"
         style="fill:#fbfcfc;fill-opacity:1;fill-rule:nonzero;stroke:none"
         id="path404" /><path
         d="m 2226.26,452.605 44.52,-25.527 -123.43,-68.801 -42.52,24.618 121.43,69.71"
         style="fill:#f4f4f4;fill-opacity:1;fill-rule:nonzero;stroke:none"
         id="path406" /><path
         d="m 2424.29,512.621 -108.17,-60.262 -45.76,25.614 106.85,61.34 47.08,-26.692"
         style="fill:#f4f4f4;fill-opacity:1;fill-rule:nonzero;stroke:none"
         id="path408" /><path
         d="m 2104.85,102.48 v 280.391 l 42.54,-24.558 V 75.5195 l -42.54,26.9605"
         style="fill:#b19eab;fill-opacity:1;fill-rule:nonzero;stroke:none"
         id="path410" /><path
         d="M 2263.78,12.0195 2531.62,166.656 V 446.145 L 2263.78,291.508 V 12.0195"
         style="fill:#d5aa55;fill-opacity:1;fill-rule:nonzero;stroke:none"
         id="path412" /><path
         d="m 2263.78,12.0195 267.84,154.6365 v 4.805 L 2263.78,16.8242 v -4.8047"
         style="fill:#976634;fill-opacity:1;fill-rule:nonzero;stroke:none"
         id="path414" /><path
         d="m 2279.66,72.0586 76.29,44.0974 v 63.746 l -74.87,-40.039 -1.42,-4.058 V 72.0586"
         style="fill:#983d1d;fill-opacity:1;fill-rule:nonzero;stroke:none"
         id="path416" /><path
         d="m 2429.2,107.668 v 279.387 l -45.88,-26.492 V 81.1797 l 45.88,26.4883"
         style="fill:#983d1d;fill-opacity:1;fill-rule:nonzero;stroke:none"
         id="path418" /><path
         d="m 2430.94,106.625 v 281.473 l -45.88,-26.493 V 80.1406 l 45.88,26.4844"
         style="fill:#d8d7d5;fill-opacity:1;fill-rule:nonzero;stroke:none"
         id="path420" /><path
         d="m 2020.06,329.754 50.76,-29.344 v 78.367 l -50.76,29.348 z m 56.48,-39.25 -62.2,35.949 v 91.574 l 62.2,-35.949 v -91.574"
         style="fill:#a14c1e;fill-opacity:1;fill-rule:nonzero;stroke:none"
         id="path422" /><path
         d="m 2033.6,335.152 21.15,-12.211 v 25.094 l -21.15,12.211 v -25.094"
         style="fill:#a14c1e;fill-opacity:1;fill-rule:nonzero;stroke:none"
         id="path424" /><path
         d="m 2023.28,366.012 41.79,-24.125 -20.9,43.703 z"
         style="fill:#a14c1e;fill-opacity:1;fill-rule:nonzero;stroke:none"
         id="path426" /><path
         d="m 2282.64,138.656 76.29,44.094 -1.56,1.211 -76.29,-44.098 1.56,-1.207"
         style="fill:#ffffff;fill-opacity:1;fill-rule:nonzero;stroke:none"
         id="path428" /><path
         d="m 2282.64,74.9102 v 63.7458 l -1.56,1.207 V 76.1172 l 1.56,-1.207"
         style="fill:#868787;fill-opacity:1;fill-rule:nonzero;stroke:none"
         id="path430" /><path
         d="m 2282.64,74.9102 76.29,44.0938 v 63.746 l -76.29,-44.094 V 74.9102"
         style="fill:#d8d7d5;fill-opacity:1;fill-rule:nonzero;stroke:none"
         id="path432" /><path
         d="m 2286.9,129.977 67.76,39.164 v 4.043 l -67.76,-39.168 v -4.039"
         style="fill:#68696b;fill-opacity:1;fill-rule:nonzero;stroke:none"
         id="path434" /><path
         d="m 2314.94,128.355 39.72,22.887 v 4.043 l -39.72,-22.887 v -4.043"
         style="fill:#898b8b;fill-opacity:1;fill-rule:nonzero;stroke:none"
         id="path436" /><path
         d="m 2287.17,85.4375 20.7,11.957 v 34.2895 l -20.7,-11.957 V 85.4375"
         style="fill:#898b8b;fill-opacity:1;fill-rule:nonzero;stroke:none"
         id="path438" /><path
         d="m 2314.94,119.574 39.72,22.887 v 4.043 l -39.72,-22.887 v -4.043"
         style="fill:#898b8b;fill-opacity:1;fill-rule:nonzero;stroke:none"
         id="path440" /><path
         d="m 2314.94,110.797 39.72,22.887 v 4.039 l -39.72,-22.887 v -4.039"
         style="fill:#898b8b;fill-opacity:1;fill-rule:nonzero;stroke:none"
         id="path442" /><path
         d="m 2314.94,102.016 39.72,22.886 v 4.043 l -39.72,-22.886 v -4.043"
         style="fill:#898b8b;fill-opacity:1;fill-rule:nonzero;stroke:none"
         id="path444" /><path
         d="m 2394.4,408.582 30.76,-20.484 -40.1,-23.164 v -3.329 l 45.88,26.493 -36.54,20.484"
         style="fill:#f4f4f4;fill-opacity:1;fill-rule:nonzero;stroke:none"
         id="path446" /><path
         d="M 262.895,0 103.516,92.0156 V 297.348 L 262.895,205.332 V 0"
         style="fill:#c2c0be;fill-opacity:1;fill-rule:nonzero;stroke:none"
         id="path448" /><path
         d="M 262.895,205.332 103.516,297.348 262.895,389.363 422.273,297.348 262.895,205.332"
         style="fill:#fcfcfd;fill-opacity:1;fill-rule:nonzero;stroke:none"
         id="path450" /><path
         d="M 262.895,0 422.273,92.0156 V 297.348 L 262.895,205.332 V 0"
         style="fill:#e7e6e5;fill-opacity:1;fill-rule:nonzero;stroke:none"
         id="path452" /></g></g></svg>
